<svg width="72" height="72" viewBox="0 0 72 72" fill="none" xmlns="http://www.w3.org/2000/svg">
<rect x="0.75" y="0.75" width="70.5" height="70.5" rx="35.25" fill="#F3F8FF" stroke="#CCE2FF" stroke-width="1.5"/>
<rect x="8" y="8" width="56" height="56" rx="28" fill="#CCE2FF"/>
<path d="M24.3333 29.3333C21.5667 29.3333 19.3333 31.5667 19.3333 34.3333V47.6667C19.3333 50.4333 21.5667 52.6667 24.3333 52.6667H26.8333C28.6667 52.6667 30.1667 51.1667 30.1667 49.3333V32.6667C30.1667 30.8333 28.6667 29.3333 26.8333 29.3333H24.3333ZM26 44.3333C26 45.0167 25.4333 45.5833 24.75 45.5833C24.0667 45.5833 23.5 45.0167 23.5 44.3333V37.6667C23.5 36.9833 24.0667 36.4167 24.75 36.4167C25.4333 36.4167 26 36.9833 26 37.6667V44.3333Z" fill="#000929"/>
<path d="M47.6667 19.3333H37.6667C34.9 19.3333 32.6667 21.5667 32.6667 24.3333V47.6667C32.6667 50.4333 34.9 52.6667 37.6667 52.6667H38.5C38.9667 52.6667 39.3333 52.3 39.3333 51.8333V46C39.3333 45.0833 40.0833 44.3333 41 44.3333H44.3333C45.25 44.3333 46 45.0833 46 46V51.8333C46 52.3 46.3667 52.6667 46.8333 52.6667H47.6667C50.4333 52.6667 52.6667 50.4333 52.6667 47.6667V24.3333C52.6667 21.5667 50.4333 19.3333 47.6667 19.3333ZM40.5833 37.6667C40.5833 38.35 40.0167 38.9167 39.3333 38.9167C38.65 38.9167 38.0833 38.35 38.0833 37.6667V29.3333C38.0833 28.65 38.65 28.0833 39.3333 28.0833C40.0167 28.0833 40.5833 28.65 40.5833 29.3333V37.6667ZM47.25 37.6667C47.25 38.35 46.6833 38.9167 46 38.9167C45.3167 38.9167 44.75 38.35 44.75 37.6667V29.3333C44.75 28.65 45.3167 28.0833 46 28.0833C46.6833 28.0833 47.25 28.65 47.25 29.3333V37.6667Z" fill="#2A85FF"/>
</svg>
