<svg width="56" height="56" viewBox="0 0 56 56" fill="none" xmlns="http://www.w3.org/2000/svg">
<circle cx="28" cy="28" r="28" fill="#000929"/>
<g clip-path="url(#clip0_875_20701)">
<path d="M36.4705 23.9964L29.9894 18.9601C29.4207 18.518 28.7206 18.278 28 18.278C27.2794 18.278 26.5794 18.518 26.0106 18.9601L19.5283 23.9964C19.1388 24.2991 18.8236 24.6867 18.6068 25.1296C18.3901 25.5726 18.2776 26.0592 18.2778 26.5522V35.2941C18.2778 35.9382 18.5339 36.5558 18.9897 37.0112C19.4455 37.4666 20.0637 37.7225 20.7084 37.7225H35.2917C35.9363 37.7225 36.5545 37.4666 37.0104 37.0112C37.4662 36.5558 37.7222 35.9382 37.7222 35.2941V26.5522C37.7222 25.553 37.2604 24.6096 36.4705 23.9964Z" fill="white" stroke="white" stroke-width="2" stroke-linecap="round" stroke-linejoin="round"/>
</g>
<defs>
<clipPath id="clip0_875_20701">
<rect width="23.3333" height="23.3333" fill="white" transform="translate(16.3333 16.3333)"/>
</clipPath>
</defs>
</svg>
