<svg width="40" height="40" viewBox="0 0 40 40" fill="none" xmlns="http://www.w3.org/2000/svg">
<circle cx="20" cy="20" r="20" fill="#2A85FF"/>
<g clip-path="url(#clip0_875_20754)">
<path d="M27.2512 23.7453C26.7875 22.9472 26.2348 21.4327 26.2348 18.75V18.1956C26.2348 14.7358 23.4592 11.9005 20.0476 11.8752C20.0316 11.8751 20.0158 11.875 19.9999 11.875C18.3444 11.8772 16.7576 12.5369 15.5885 13.709C14.4194 14.8811 13.7638 16.4696 13.7659 18.125V18.75C13.7659 21.4325 13.2128 22.947 12.749 23.745C12.6382 23.9348 12.5794 24.1505 12.5785 24.3702C12.5777 24.59 12.6348 24.8061 12.7441 24.9968C12.8534 25.1875 13.0111 25.3459 13.2012 25.4562C13.3913 25.5665 13.6071 25.6248 13.8269 25.625H16.875C16.875 26.4538 17.2043 27.2487 17.7903 27.8347C18.3764 28.4208 19.1712 28.75 20 28.75C20.8288 28.75 21.6237 28.4208 22.2097 27.8347C22.7958 27.2487 23.125 26.4538 23.125 25.625H26.1732C26.393 25.6248 26.6087 25.5666 26.7988 25.4563C26.9889 25.346 27.1465 25.1876 27.2559 24.9969C27.3652 24.8063 27.4223 24.5902 27.4215 24.3705C27.4207 24.1508 27.3619 23.9351 27.2512 23.7453ZM20 27.5C19.5029 27.4995 19.0263 27.3017 18.6748 26.9502C18.3233 26.5987 18.1256 26.1221 18.125 25.625H21.875C21.8745 26.1221 21.6767 26.5987 21.3252 26.9502C20.9737 27.3017 20.4971 27.4995 20 27.5Z" fill="white"/>
</g>
<defs>
<clipPath id="clip0_875_20754">
<rect width="20" height="20" fill="white" transform="translate(10 10)"/>
</clipPath>
</defs>
</svg>
