<svg width="57" height="60" viewBox="0 0 57 60" fill="none" xmlns="http://www.w3.org/2000/svg">
<rect x="0.5" width="56" height="56" rx="28" fill="#100A55"/>
<path d="M26.8704 22.6296C26.5363 22.6296 26.2592 22.9067 26.2592 23.2407V24.463C26.2592 24.797 26.5363 25.0741 26.8704 25.0741C27.2044 25.0741 27.4815 24.797 27.4815 24.463V23.2407C27.4815 22.9067 27.2044 22.6296 26.8704 22.6296Z" fill="#CCE2FF"/>
<path d="M36.6482 27.3148H35.8333V18.1318C35.8333 17.6267 35.6052 17.1541 35.2059 16.8444L29.5022 12.4118C28.9156 11.9474 28.0845 11.9474 27.4978 12.4118L21.7941 16.8444C21.3948 17.1541 21.1667 17.6267 21.1667 18.1237L21.1259 27.3148H20.3519C20.0178 27.3148 19.7408 27.5837 19.7408 27.9259C19.7408 28.26 20.0178 28.537 20.3519 28.537H36.6482C36.9822 28.537 37.2593 28.26 37.2593 27.9259C37.2593 27.5837 36.9822 27.3148 36.6482 27.3148ZM27.2778 15.5H29.7222C30.0563 15.5 30.3333 15.777 30.3333 16.1111C30.3333 16.4452 30.0563 16.7222 29.7222 16.7222H27.2778C26.9437 16.7222 26.6667 16.4452 26.6667 16.1111C26.6667 15.777 26.9437 15.5 27.2778 15.5ZM32.5741 27.3148H24.4259V20.1852C24.4259 19.5089 24.9719 18.963 25.6482 18.963H31.3519C32.0282 18.963 32.5741 19.5089 32.5741 20.1852V27.3148Z" fill="#CCE2FF"/>
<path d="M17.5 34.4444H39.5" stroke="#CCE2FF" stroke-width="2.44444" stroke-miterlimit="10" stroke-linecap="round" stroke-linejoin="round"/>
<path opacity="0.5" d="M17.5 41.7778H29.7222" stroke="#CCE2FF" stroke-width="2.44444" stroke-miterlimit="10" stroke-linecap="round" stroke-linejoin="round"/>
<rect x="36.5" y="42" width="16" height="18" rx="3" fill="#2A85FF"/>
<path d="M44.2916 54.7495C46.4777 54.7495 48.2499 52.9773 48.2499 50.7912C48.2499 48.6051 46.4777 46.8329 44.2916 46.8329C42.1054 46.8329 40.3332 48.6051 40.3332 50.7912C40.3332 52.9773 42.1054 54.7495 44.2916 54.7495Z" stroke="white" stroke-width="1.5" stroke-linecap="round" stroke-linejoin="round"/>
<path d="M48.6666 55.1662L47.8332 54.3329" stroke="white" stroke-width="1.5" stroke-linecap="round" stroke-linejoin="round"/>
</svg>
