<svg width="219" height="48" viewBox="0 0 219 48" fill="none" xmlns="http://www.w3.org/2000/svg">
<g clip-path="url(#clip0_3165_11502)">
<mask id="mask0_3165_11502" style="mask-type:luminance" maskUnits="userSpaceOnUse" x="0" y="0" width="50" height="48">
<path d="M15.4721 0C6.92711 0 0 6.92711 0 15.4721V32.5279C0 41.0729 6.92711 48 15.4721 48H33.9898C42.5348 48 49.4619 41.0729 49.4619 32.5279V15.4721C49.4619 6.92711 42.5348 0 33.9898 0H15.4721Z" fill="white"/>
</mask>
<g mask="url(#mask0_3165_11502)">
<path d="M5.78595 63.8968L-15.4266 5.61462L43.6759 -15.8969L64.8885 42.3854L5.78595 63.8968Z" fill="url(#paint0_linear_3165_11502)"/>
</g>
<mask id="mask1_3165_11502" style="mask-type:luminance" maskUnits="userSpaceOnUse" x="0" y="0" width="50" height="48">
<path d="M9.48142 46.7094C7.64832 45.9346 6.00284 44.8244 4.58883 43.4112C3.17563 41.998 2.06538 40.3517 1.29056 38.5186C0.488122 36.6213 0.0812183 34.6055 0.0812183 32.5279V15.4721C0.0812183 13.3945 0.488122 11.3787 1.29056 9.48142C2.06619 7.64832 3.17563 6.00284 4.58883 4.58883C6.00203 3.17482 7.64832 2.06538 9.48142 1.29056C11.3787 0.488122 13.3945 0.0812183 15.4721 0.0812183H33.9898C36.0674 0.0812183 38.0832 0.488122 39.9805 1.29056C41.8136 2.06538 43.4591 3.17563 44.8723 4.58883C46.2863 6.00203 47.3957 7.64832 48.1706 9.48061C48.9738 11.3787 49.3807 13.3945 49.3807 15.4721V32.5279C49.3807 34.6055 48.9738 36.6213 48.1714 38.5186C47.3965 40.3517 46.2863 41.9972 44.8731 43.4112C43.4599 44.8244 41.8136 45.9346 39.9813 46.7094C38.0832 47.5119 36.0674 47.9188 33.9898 47.9188H15.4721C13.3945 47.9188 11.3787 47.5119 9.48142 46.7094ZM15.4721 0C6.92711 0 0 6.92711 0 15.4721V32.5279C0 41.0729 6.92711 48 15.4721 48H33.9898C42.5348 48 49.4619 41.0729 49.4619 32.5279V15.4721C49.4619 6.92711 42.5348 0 33.9898 0H15.4721Z" fill="white"/>
</mask>
<g mask="url(#mask1_3165_11502)">
<path d="M5.78595 63.8968L-15.4266 5.61462L43.6759 -15.8969L64.8885 42.3854L5.78595 63.8968Z" fill="url(#paint1_linear_3165_11502)"/>
</g>
<mask id="mask2_3165_11502" style="mask-type:luminance" maskUnits="userSpaceOnUse" x="11" y="26" width="27" height="22">
<path d="M11.3665 26.2327V47.4493C12.6741 47.8083 14.0507 48 15.472 48H33.9898C35.2048 48 36.3857 47.8603 37.5204 47.5955V26.2327H11.3665Z" fill="white"/>
</mask>
<g mask="url(#mask2_3165_11502)">
<path d="M37.5204 26.2327H11.3665V48H37.5204V26.2327Z" fill="url(#paint2_linear_3165_11502)"/>
</g>
<mask id="mask3_3165_11502" style="mask-type:luminance" maskUnits="userSpaceOnUse" x="0" y="0" width="50" height="48">
<path d="M15.4721 0C6.92711 0 0 6.92711 0 15.4721V32.5279C0 41.0729 6.92711 48 15.4721 48H33.9898C42.5348 48 49.4619 41.0729 49.4619 32.5279V15.4721C49.4619 6.92711 42.5348 0 33.9898 0H15.4721Z" fill="white"/>
</mask>
<g mask="url(#mask3_3165_11502)">
<path d="M34.3375 42.2709C34.3375 43.957 32.9706 45.323 31.2853 45.323C29.5993 45.323 28.4801 43.9773 28.2332 42.2709C27.9911 40.6026 29.6163 39.2504 31.2853 39.2187C32.9706 39.1862 34.3375 40.5856 34.3375 42.2709Z" fill="#BAC9C4"/>
</g>
<mask id="mask4_3165_11502" style="mask-type:luminance" maskUnits="userSpaceOnUse" x="0" y="0" width="50" height="48">
<path d="M15.4721 0C6.92711 0 0 6.92711 0 15.4721V32.5279C0 41.0729 6.92711 48 15.4721 48H33.9898C42.5348 48 49.4619 41.0729 49.4619 32.5279V15.4721C49.4619 6.92711 42.5348 0 33.9898 0H15.4721Z" fill="white"/>
</mask>
<g mask="url(#mask4_3165_11502)">
<path d="M38.3399 40.5076C37.7397 41.2751 36.8049 41.7681 35.7548 41.7681C33.9428 41.7681 32.4744 40.2997 32.4744 38.4877C32.4744 36.6757 33.9428 35.2073 35.7548 35.2073C36.8244 35.2073 37.7747 35.7198 38.3741 36.5117C38.7899 37.0607 38.7761 39.9505 38.3399 40.5076Z" fill="#BAC9C4"/>
</g>
<mask id="mask5_3165_11502" style="mask-type:luminance" maskUnits="userSpaceOnUse" x="0" y="0" width="50" height="48">
<path d="M15.4721 0C6.92711 0 0 6.92711 0 15.4721V32.5279C0 41.0729 6.92711 48 15.4721 48H33.9898C42.5348 48 49.4619 41.0729 49.4619 32.5279V15.4721C49.4619 6.92711 42.5348 0 33.9898 0H15.4721Z" fill="white"/>
</mask>
<g mask="url(#mask5_3165_11502)">
<path d="M18.5308 36.4305C18.5308 39.0392 16.4159 41.1541 13.8072 41.1541C12.679 41.1541 11.6443 40.7586 10.8321 40.0999C9.76574 39.2341 10.3643 33.5667 11.3617 32.7009C12.1909 31.9813 12.623 31.7076 13.8072 31.7076C16.4159 31.7068 18.5308 33.8217 18.5308 36.4305Z" fill="#BAC9C4"/>
</g>
<mask id="mask6_3165_11502" style="mask-type:luminance" maskUnits="userSpaceOnUse" x="0" y="0" width="50" height="48">
<path d="M15.4721 0C6.92711 0 0 6.92711 0 15.4721V32.5279C0 41.0729 6.92711 48 15.4721 48H33.9898C42.5348 48 49.4619 41.0729 49.4619 32.5279V15.4721C49.4619 6.92711 42.5348 0 33.9898 0H15.4721Z" fill="white"/>
</mask>
<g mask="url(#mask6_3165_11502)">
<path d="M37.5204 48.7976H11.3665V26.2327H37.5204V48.7976ZM38.8435 24.9096H37.5204H11.3665H10.0435V26.2327V48.7976V50.1206H11.3665H37.5204H38.8435V48.7976V26.2327V24.9096Z" fill="#112033"/>
</g>
<mask id="mask7_3165_11502" style="mask-type:luminance" maskUnits="userSpaceOnUse" x="7" y="1" width="35" height="33">
<path d="M7.13013 17.5237C7.13013 26.2579 14.7833 33.3385 24.2241 33.3385C33.665 33.3385 41.3181 26.2579 41.3181 17.5237C41.3181 8.78944 33.665 1.70883 24.2241 1.70883C14.7841 1.70883 7.13013 8.78944 7.13013 17.5237Z" fill="white"/>
</mask>
<g mask="url(#mask7_3165_11502)">
<path d="M41.319 1.70883H7.13013V33.3385H41.319V1.70883Z" fill="url(#paint3_linear_3165_11502)"/>
</g>
<mask id="mask8_3165_11502" style="mask-type:luminance" maskUnits="userSpaceOnUse" x="0" y="0" width="50" height="48">
<path d="M15.4721 0C6.92711 0 0 6.92711 0 15.4721V32.5279C0 41.0729 6.92711 48 15.4721 48H33.9898C42.5348 48 49.4619 41.0729 49.4619 32.5279V15.4721C49.4619 6.92711 42.5348 0 33.9898 0H15.4721Z" fill="white"/>
</mask>
<g mask="url(#mask8_3165_11502)">
<path d="M24.225 3.00832C26.37 3.00832 28.4492 3.39655 30.4057 4.16162C32.2892 4.89909 33.9801 5.95249 35.4307 7.29421C38.3903 10.0321 40.0203 13.665 40.0203 17.5228C40.0203 21.3807 38.3903 25.0136 35.4307 27.7515C33.9801 29.0932 32.29 30.1474 30.4057 30.8849C28.45 31.6499 26.37 32.0382 24.225 32.0382C22.08 32.0382 20.0008 31.6499 18.0443 30.8849C16.1608 30.1474 14.4699 29.0932 13.0193 27.7515C10.0597 25.0136 8.42966 21.3807 8.42966 17.5228C8.42966 13.665 10.0597 10.0321 13.0193 7.29421C14.4699 5.95249 16.16 4.89827 18.0443 4.16162C20.0008 3.39655 22.08 3.00832 24.225 3.00832ZM24.225 1.70883C14.7842 1.70883 7.13098 8.78944 7.13098 17.5237C7.13098 26.2579 14.7842 33.3385 24.225 33.3385C33.6658 33.3385 41.319 26.2579 41.319 17.5237C41.319 8.78944 33.6658 1.70883 24.225 1.70883Z" fill="#112033"/>
</g>
<mask id="mask9_3165_11502" style="mask-type:luminance" maskUnits="userSpaceOnUse" x="0" y="0" width="50" height="48">
<path d="M15.4721 0C6.92711 0 0 6.92711 0 15.4721V32.5279C0 41.0729 6.92711 48 15.4721 48H33.9898C42.5348 48 49.4619 41.0729 49.4619 32.5279V15.4721C49.4619 6.92711 42.5348 0 33.9898 0H15.4721Z" fill="white"/>
</mask>
<g mask="url(#mask9_3165_11502)">
<path d="M41.2987 16.7561C40.8829 23.9464 33.3978 27.7702 24.2234 27.7702C15.0611 27.7702 7.58337 23.9561 7.14966 16.7854C7.13748 17.0307 7.13098 17.2768 7.13098 17.5237C7.13098 26.2579 14.7842 33.3385 24.225 33.3385C33.6658 33.3385 41.319 26.2579 41.319 17.5237C41.319 17.2662 41.3117 17.0104 41.2987 16.7561Z" fill="#BCCCCB"/>
</g>
<mask id="mask10_3165_11502" style="mask-type:luminance" maskUnits="userSpaceOnUse" x="0" y="0" width="50" height="48">
<path d="M15.4721 0C6.92711 0 0 6.92711 0 15.4721V32.5279C0 41.0729 6.92711 48 15.4721 48H33.9898C42.5348 48 49.4619 41.0729 49.4619 32.5279V15.4721C49.4619 6.92711 42.5348 0 33.9898 0H15.4721Z" fill="white"/>
</mask>
<g mask="url(#mask10_3165_11502)">
<path d="M24.225 3.00832C26.37 3.00832 28.4492 3.39655 30.4057 4.16162C32.2892 4.89909 33.9801 5.95249 35.4307 7.29421C38.3903 10.0321 40.0203 13.665 40.0203 17.5228C40.0203 21.3807 38.3903 25.0136 35.4307 27.7515C33.9801 29.0932 32.29 30.1474 30.4057 30.8849C28.45 31.6499 26.37 32.0382 24.225 32.0382C22.08 32.0382 20.0008 31.6499 18.0443 30.8849C16.1608 30.1474 14.4699 29.0932 13.0193 27.7515C10.0597 25.0136 8.42966 21.3807 8.42966 17.5228C8.42966 13.665 10.0597 10.0321 13.0193 7.29421C14.4699 5.95249 16.16 4.89827 18.0443 4.16162C20.0008 3.39655 22.08 3.00832 24.225 3.00832ZM24.225 1.70883C14.7842 1.70883 7.13098 8.78944 7.13098 17.5237C7.13098 26.2579 14.7842 33.3385 24.225 33.3385C33.6658 33.3385 41.319 26.2579 41.319 17.5237C41.319 8.78944 33.6658 1.70883 24.225 1.70883Z" fill="#112033"/>
</g>
<mask id="mask11_3165_11502" style="mask-type:luminance" maskUnits="userSpaceOnUse" x="0" y="0" width="50" height="48">
<path d="M15.4721 0C6.92711 0 0 6.92711 0 15.4721V32.5279C0 41.0729 6.92711 48 15.4721 48H33.9898C42.5348 48 49.4619 41.0729 49.4619 32.5279V15.4721C49.4619 6.92711 42.5348 0 33.9898 0H15.4721Z" fill="white"/>
</mask>
<g mask="url(#mask11_3165_11502)">
<path d="M19.2171 14.1994C19.2171 15.5151 18.1499 16.5823 16.8341 16.5823C15.5184 16.5823 14.4512 15.5151 14.4512 14.1994C14.4512 12.8837 15.5176 11.8164 16.8341 11.8164C18.1507 11.8173 19.2171 12.8837 19.2171 14.1994Z" fill="#112033"/>
</g>
<mask id="mask12_3165_11502" style="mask-type:luminance" maskUnits="userSpaceOnUse" x="0" y="0" width="50" height="48">
<path d="M15.4721 0C6.92711 0 0 6.92711 0 15.4721V32.5279C0 41.0729 6.92711 48 15.4721 48H33.9898C42.5348 48 49.4619 41.0729 49.4619 32.5279V15.4721C49.4619 6.92711 42.5348 0 33.9898 0H15.4721Z" fill="white"/>
</mask>
<g mask="url(#mask12_3165_11502)">
<path d="M19.5809 30.4877C19.5809 34.0248 16.8439 36.8926 13.4684 36.8926C10.093 36.8926 7.35596 34.0248 7.35596 30.4877C7.35596 26.9507 10.093 24.0828 13.4684 24.0828C16.8439 24.0828 19.5809 26.9507 19.5809 30.4877Z" fill="#FEFDF4"/>
</g>
<mask id="mask13_3165_11502" style="mask-type:luminance" maskUnits="userSpaceOnUse" x="0" y="0" width="50" height="48">
<path d="M15.4721 0C6.92711 0 0 6.92711 0 15.4721V32.5279C0 41.0729 6.92711 48 15.4721 48H33.9898C42.5348 48 49.4619 41.0729 49.4619 32.5279V15.4721C49.4619 6.92711 42.5348 0 33.9898 0H15.4721Z" fill="white"/>
</mask>
<g mask="url(#mask13_3165_11502)">
<path d="M13.4684 25.3823C16.1227 25.3823 18.2814 27.6727 18.2814 30.4877C18.2814 33.3027 16.1227 35.5931 13.4684 35.5931C10.8142 35.5931 8.65545 33.3027 8.65545 30.4877C8.65545 27.6727 10.815 25.3823 13.4684 25.3823ZM13.4684 24.0828C10.0922 24.0828 7.35596 26.9507 7.35596 30.4877C7.35596 34.0248 10.0922 36.8926 13.4684 36.8926C16.8447 36.8926 19.5809 34.0248 19.5809 30.4877C19.5809 26.9507 16.8447 24.0828 13.4684 24.0828Z" fill="#112033"/>
</g>
<mask id="mask14_3165_11502" style="mask-type:luminance" maskUnits="userSpaceOnUse" x="0" y="0" width="50" height="48">
<path d="M15.4721 0C6.92711 0 0 6.92711 0 15.4721V32.5279C0 41.0729 6.92711 48 15.4721 48H33.9898C42.5348 48 49.4619 41.0729 49.4619 32.5279V15.4721C49.4619 6.92711 42.5348 0 33.9898 0H15.4721Z" fill="white"/>
</mask>
<g mask="url(#mask14_3165_11502)">
<path d="M32.8414 39.0246C32.4426 40.6855 30.7728 41.7088 29.1119 41.31C27.451 40.9113 26.4276 39.2414 26.8264 37.5805L31.3153 22.0914L36.718 23.3194L32.8414 39.0246Z" fill="#FEFDF4"/>
</g>
<mask id="mask15_3165_11502" style="mask-type:luminance" maskUnits="userSpaceOnUse" x="0" y="0" width="50" height="48">
<path d="M15.4721 0C6.92711 0 0 6.92711 0 15.4721V32.5279C0 41.0729 6.92711 48 15.4721 48H33.9898C42.5348 48 49.4619 41.0729 49.4619 32.5279V15.4721C49.4619 6.92711 42.5348 0 33.9898 0H15.4721Z" fill="white"/>
</mask>
<g mask="url(#mask15_3165_11502)">
<path d="M32.2217 23.6305L35.1383 24.2932L31.5793 38.7135L31.5785 38.7176L31.5777 38.7216C31.3836 39.5314 30.6672 40.0966 29.8363 40.0966C29.6958 40.0966 29.5537 40.0796 29.4148 40.0463C28.9494 39.9342 28.5547 39.6483 28.3046 39.2398C28.0593 38.8386 27.9805 38.3675 28.0837 37.9094L32.2217 23.6305ZM31.3153 22.0914L26.8264 37.5805C26.4276 39.2414 27.451 40.9113 29.1119 41.31C29.3547 41.3685 29.5976 41.3961 29.8363 41.3961C31.2333 41.3961 32.5003 40.4426 32.8406 39.0246L36.7172 23.3194L31.3153 22.0914Z" fill="#112033"/>
</g>
<mask id="mask16_3165_11502" style="mask-type:luminance" maskUnits="userSpaceOnUse" x="0" y="0" width="50" height="48">
<path d="M15.4721 0C6.92711 0 0 6.92711 0 15.4721V32.5279C0 41.0729 6.92711 48 15.4721 48H33.9898C42.5348 48 49.4619 41.0729 49.4619 32.5279V15.4721C49.4619 6.92711 42.5348 0 33.9898 0H15.4721Z" fill="white"/>
</mask>
<g mask="url(#mask16_3165_11502)">
<path d="M29.2703 33.8729C28.9357 34.2441 29.211 35.0368 29.4547 35.4843C29.8307 36.1754 30.1637 36.1023 30.7672 36.9576C31.1058 37.4384 31.4072 37.8794 31.274 38.3391C31.1448 38.7842 30.6835 38.9888 30.5836 39.0294C30.0061 39.2666 29.2906 39.0489 28.8796 38.638C28.3923 38.1507 28.5247 37.5846 28.1203 37.4636C27.8506 37.3831 27.5095 37.5505 27.36 37.786C27.2447 37.9687 27.2813 38.2018 27.36 38.6607C27.4526 39.2008 27.4989 39.4713 27.7052 39.7888C27.9343 40.1413 28.2169 40.3314 28.3728 40.4337C28.4459 40.4816 28.77 40.6895 29.2711 40.8024C29.5919 40.8747 30.327 41.0404 31.0206 40.6644C31.3235 40.5003 31.4949 40.2997 31.7345 40.0195C32.2072 39.4664 32.4208 38.9165 32.4939 38.707C32.8074 37.8169 32.4768 37.7559 32.7927 36.7269C32.8553 36.5239 32.9259 36.3371 32.839 36.1511C32.7075 35.8717 32.3631 35.909 31.8717 35.7133C30.9946 35.3641 30.4585 34.5941 30.4212 34.5389C30.1207 34.0962 30.076 33.7454 29.7763 33.6869C29.5944 33.6528 29.3897 33.7405 29.2703 33.8729Z" fill="#BCCCCB"/>
</g>
<mask id="mask17_3165_11502" style="mask-type:luminance" maskUnits="userSpaceOnUse" x="0" y="0" width="50" height="48">
<path d="M15.4721 0C6.92711 0 0 6.92711 0 15.4721V32.5279C0 41.0729 6.92711 48 15.4721 48H33.9898C42.5348 48 49.4619 41.0729 49.4619 32.5279V15.4721C49.4619 6.92711 42.5348 0 33.9898 0H15.4721Z" fill="white"/>
</mask>
<g mask="url(#mask17_3165_11502)">
<path d="M32.2217 23.6305L35.1383 24.2932L31.5793 38.7135L31.5785 38.7176L31.5777 38.7216C31.3836 39.5314 30.6672 40.0966 29.8363 40.0966C29.6958 40.0966 29.5537 40.0796 29.4148 40.0463C28.9494 39.9342 28.5547 39.6483 28.3046 39.2398C28.0593 38.8386 27.9805 38.3675 28.0837 37.9094L32.2217 23.6305ZM31.3153 22.0914L26.8264 37.5805C26.4276 39.2414 27.451 40.9113 29.1119 41.31C29.3547 41.3685 29.5976 41.3961 29.8363 41.3961C31.2333 41.3961 32.5003 40.4426 32.8406 39.0246L36.7172 23.3194L31.3153 22.0914Z" fill="#112033"/>
</g>
<mask id="mask18_3165_11502" style="mask-type:luminance" maskUnits="userSpaceOnUse" x="0" y="0" width="50" height="48">
<path d="M15.4721 0C6.92711 0 0 6.92711 0 15.4721V32.5279C0 41.0729 6.92711 48 15.4721 48H33.9898C42.5348 48 49.4619 41.0729 49.4619 32.5279V15.4721C49.4619 6.92711 42.5348 0 33.9898 0H15.4721Z" fill="white"/>
</mask>
<g mask="url(#mask18_3165_11502)">
<path d="M23.8595 22.8134C23.7839 22.8134 23.7076 22.8118 23.6313 22.8093C20.6148 22.7029 18.8751 20.549 18.5567 20.1186C18.3171 19.7937 18.3854 19.3364 18.7102 19.096C19.0351 18.8564 19.4924 18.9247 19.7328 19.2495C19.9813 19.5858 21.3377 21.2654 23.6832 21.3474C26.2952 21.44 27.8311 19.4729 27.9976 19.2479C28.238 18.9239 28.696 18.8556 29.0201 19.096C29.3441 19.3364 29.4124 19.7945 29.172 20.1186C28.9624 20.4012 27.079 22.8134 23.8595 22.8134Z" fill="#14182D"/>
</g>
<mask id="mask19_3165_11502" style="mask-type:luminance" maskUnits="userSpaceOnUse" x="0" y="0" width="50" height="48">
<path d="M15.4721 0C6.92711 0 0 6.92711 0 15.4721V32.5279C0 41.0729 6.92711 48 15.4721 48H33.9898C42.5348 48 49.4619 41.0729 49.4619 32.5279V15.4721C49.4619 6.92711 42.5348 0 33.9898 0H15.4721Z" fill="white"/>
</mask>
<g mask="url(#mask19_3165_11502)">
<path d="M34.5429 28.696C34.5429 30.8832 32.8503 32.6562 30.763 32.6562C28.6757 32.6562 26.8207 30.8832 26.8207 28.696C26.8207 26.5088 28.6708 24.8504 30.763 24.7358C32.8479 24.6205 34.5429 26.508 34.5429 28.696Z" fill="#FEFDF4"/>
</g>
<mask id="mask20_3165_11502" style="mask-type:luminance" maskUnits="userSpaceOnUse" x="0" y="0" width="50" height="48">
<path d="M15.4721 0C6.92711 0 0 6.92711 0 15.4721V32.5279C0 41.0729 6.92711 48 15.4721 48H33.9898C42.5348 48 49.4619 41.0729 49.4619 32.5279V15.4721C49.4619 6.92711 42.5348 0 33.9898 0H15.4721Z" fill="white"/>
</mask>
<g mask="url(#mask20_3165_11502)">
<path d="M30.9433 25.7048C32.3663 25.7048 33.5683 27.0741 33.5683 28.696C33.5683 30.3423 32.3102 31.6816 30.763 31.6816C30.0126 31.6816 29.2588 31.3616 28.6944 30.8028C28.1145 30.2294 27.7953 29.4806 27.7953 28.6952C27.7953 27.9253 28.1112 27.1943 28.6863 26.6372C29.2507 26.0897 30.0272 25.7511 30.8166 25.7072C30.8588 25.7056 30.9011 25.7048 30.9433 25.7048ZM30.9433 24.7302C30.8832 24.7302 30.8231 24.7318 30.763 24.735C28.6708 24.8504 26.8207 26.508 26.8207 28.6952C26.8207 30.8824 28.6757 32.6554 30.763 32.6554C32.8503 32.6554 34.5429 30.8824 34.5429 28.6952C34.5429 26.5714 32.9445 24.7302 30.9433 24.7302Z" fill="#112033"/>
</g>
<mask id="mask21_3165_11502" style="mask-type:luminance" maskUnits="userSpaceOnUse" x="0" y="0" width="50" height="48">
<path d="M15.4721 0C6.92711 0 0 6.92711 0 15.4721V32.5279C0 41.0729 6.92711 48 15.4721 48H33.9898C42.5348 48 49.4619 41.0729 49.4619 32.5279V15.4721C49.4619 6.92711 42.5348 0 33.9898 0H15.4721Z" fill="white"/>
</mask>
<g mask="url(#mask21_3165_11502)">
<path d="M40.5889 30.8938C40.5889 34.4309 37.8518 37.2987 34.4764 37.2987C31.1009 37.2987 28.3639 34.4309 28.3639 30.8938C28.3639 27.3568 31.1009 24.4889 34.4764 24.4889C37.8518 24.4889 40.5889 27.3568 40.5889 30.8938Z" fill="#FEFDF4"/>
</g>
<mask id="mask22_3165_11502" style="mask-type:luminance" maskUnits="userSpaceOnUse" x="0" y="0" width="50" height="48">
<path d="M15.4721 0C6.92711 0 0 6.92711 0 15.4721V32.5279C0 41.0729 6.92711 48 15.4721 48H33.9898C42.5348 48 49.4619 41.0729 49.4619 32.5279V15.4721C49.4619 6.92711 42.5348 0 33.9898 0H15.4721Z" fill="white"/>
</mask>
<g mask="url(#mask22_3165_11502)">
<path d="M34.4764 25.7884C37.1306 25.7884 39.2894 28.0788 39.2894 30.8938C39.2894 33.7088 37.1306 35.9992 34.4764 35.9992C31.8222 35.9992 29.6634 33.7088 29.6634 30.8938C29.6634 28.0788 31.8222 25.7884 34.4764 25.7884ZM34.4764 24.4889C31.1001 24.4889 28.3639 27.3568 28.3639 30.8938C28.3639 34.4309 31.1009 37.2987 34.4764 37.2987C37.8518 37.2987 40.5889 34.4309 40.5889 30.8938C40.5889 27.3568 37.8518 24.4889 34.4764 24.4889Z" fill="#112033"/>
</g>
<mask id="mask23_3165_11502" style="mask-type:luminance" maskUnits="userSpaceOnUse" x="0" y="0" width="50" height="48">
<path d="M15.4721 0C6.92711 0 0 6.92711 0 15.4721V32.5279C0 41.0729 6.92711 48 15.4721 48H33.9898C42.5348 48 49.4619 41.0729 49.4619 32.5279V15.4721C49.4619 6.92711 42.5348 0 33.9898 0H15.4721Z" fill="white"/>
</mask>
<g mask="url(#mask23_3165_11502)">
<path d="M13.4189 33.7405C10.7103 33.7405 9.02015 31.2341 8.14056 29.4116C7.6232 28.3411 7.47782 29.5659 7.65975 30.5088C8.33954 34.0256 10.279 36.7911 13.4197 36.7911C16.6612 36.7911 18.4837 34.1653 19.1538 30.7777C19.356 29.7559 19.3 28.4621 18.7988 29.643C18.0378 31.4388 16.4719 33.7405 13.4189 33.7405Z" fill="#BCCCCB"/>
</g>
<mask id="mask24_3165_11502" style="mask-type:luminance" maskUnits="userSpaceOnUse" x="0" y="0" width="50" height="48">
<path d="M15.4721 0C6.92711 0 0 6.92711 0 15.4721V32.5279C0 41.0729 6.92711 48 15.4721 48H33.9898C42.5348 48 49.4619 41.0729 49.4619 32.5279V15.4721C49.4619 6.92711 42.5348 0 33.9898 0H15.4721Z" fill="white"/>
</mask>
<g mask="url(#mask24_3165_11502)">
<path d="M34.041 34.1539C31.5183 33.8112 30.2529 31.3267 29.6576 29.5659C29.3076 28.5312 29.0209 29.6219 29.0745 30.4991C29.2751 33.7697 30.7411 36.5206 33.6657 36.9178C36.6846 37.3279 38.7045 35.1797 39.7457 32.1965C40.0601 31.2966 40.1664 30.1182 39.5549 31.1237C38.6249 32.6538 36.8844 34.5405 34.041 34.1539Z" fill="#BCCCCB"/>
</g>
<mask id="mask25_3165_11502" style="mask-type:luminance" maskUnits="userSpaceOnUse" x="0" y="0" width="50" height="48">
<path d="M15.4721 0C6.92711 0 0 6.92711 0 15.4721V32.5279C0 41.0729 6.92711 48 15.4721 48H33.9898C42.5348 48 49.4619 41.0729 49.4619 32.5279V15.4721C49.4619 6.92711 42.5348 0 33.9898 0H15.4721Z" fill="white"/>
</mask>
<g mask="url(#mask25_3165_11502)">
<path d="M13.4684 25.3823C16.1227 25.3823 18.2814 27.6727 18.2814 30.4877C18.2814 33.3027 16.1227 35.5931 13.4684 35.5931C10.8142 35.5931 8.65545 33.3027 8.65545 30.4877C8.65545 27.6727 10.815 25.3823 13.4684 25.3823ZM13.4684 24.0828C10.0922 24.0828 7.35596 26.9507 7.35596 30.4877C7.35596 34.0248 10.0922 36.8926 13.4684 36.8926C16.8447 36.8926 19.5809 34.0248 19.5809 30.4877C19.5809 26.9507 16.8447 24.0828 13.4684 24.0828Z" fill="#112033"/>
</g>
<mask id="mask26_3165_11502" style="mask-type:luminance" maskUnits="userSpaceOnUse" x="0" y="0" width="50" height="48">
<path d="M15.4721 0C6.92711 0 0 6.92711 0 15.4721V32.5279C0 41.0729 6.92711 48 15.4721 48H33.9898C42.5348 48 49.4619 41.0729 49.4619 32.5279V15.4721C49.4619 6.92711 42.5348 0 33.9898 0H15.4721Z" fill="white"/>
</mask>
<g mask="url(#mask26_3165_11502)">
<path d="M34.4764 25.7884C37.1306 25.7884 39.2894 28.0788 39.2894 30.8938C39.2894 33.7088 37.1306 35.9992 34.4764 35.9992C31.8222 35.9992 29.6634 33.7088 29.6634 30.8938C29.6634 28.0788 31.8222 25.7884 34.4764 25.7884ZM34.4764 24.4889C31.1001 24.4889 28.3639 27.3568 28.3639 30.8938C28.3639 34.4309 31.1009 37.2987 34.4764 37.2987C37.8518 37.2987 40.5889 34.4309 40.5889 30.8938C40.5889 27.3568 37.8518 24.4889 34.4764 24.4889Z" fill="#112033"/>
</g>
<mask id="mask27_3165_11502" style="mask-type:luminance" maskUnits="userSpaceOnUse" x="0" y="0" width="50" height="48">
<path d="M15.4721 0C6.92711 0 0 6.92711 0 15.4721V32.5279C0 41.0729 6.92711 48 15.4721 48H33.9898C42.5348 48 49.4619 41.0729 49.4619 32.5279V15.4721C49.4619 6.92711 42.5348 0 33.9898 0H15.4721Z" fill="white"/>
</mask>
<g mask="url(#mask27_3165_11502)">
<path d="M45.7665 13.6495C45.7665 19.4055 41.1005 24.0715 35.3445 24.0715C29.5886 24.0715 24.9226 19.4055 24.9226 13.6495C24.9226 7.8936 29.5886 3.22843 35.3445 3.22843C41.1005 3.22843 45.7665 7.89442 45.7665 13.6495Z" fill="#FEFDF4"/>
</g>
<mask id="mask28_3165_11502" style="mask-type:luminance" maskUnits="userSpaceOnUse" x="0" y="0" width="50" height="48">
<path d="M15.4721 0C6.92711 0 0 6.92711 0 15.4721V32.5279C0 41.0729 6.92711 48 15.4721 48H33.9898C42.5348 48 49.4619 41.0729 49.4619 32.5279V15.4721C49.4619 6.92711 42.5348 0 33.9898 0H15.4721Z" fill="white"/>
</mask>
<g mask="url(#mask28_3165_11502)">
<path d="M35.3445 4.52792C37.7811 4.52792 40.0714 5.47655 41.7949 7.2C43.5175 8.92264 44.467 11.2138 44.467 13.6504C44.467 16.0869 43.5183 18.3781 41.7949 20.1007C40.0723 21.8233 37.7811 22.7728 35.3445 22.7728C32.908 22.7728 30.6168 21.8242 28.8942 20.1007C27.1715 18.3781 26.2221 16.0869 26.2221 13.6504C26.2221 11.2138 27.1707 8.92345 28.8942 7.2C30.6176 5.47655 32.908 4.52792 35.3445 4.52792ZM35.3445 3.22843C29.5886 3.22843 24.9226 7.89442 24.9226 13.6504C24.9226 19.4063 29.5886 24.0723 35.3445 24.0723C41.1005 24.0723 45.7665 19.4055 45.7665 13.6495C45.7665 7.89442 41.1005 3.22843 35.3445 3.22843Z" fill="#112033"/>
</g>
<mask id="mask29_3165_11502" style="mask-type:luminance" maskUnits="userSpaceOnUse" x="0" y="0" width="50" height="48">
<path d="M15.4721 0C6.92711 0 0 6.92711 0 15.4721V32.5279C0 41.0729 6.92711 48 15.4721 48H33.9898C42.5348 48 49.4619 41.0729 49.4619 32.5279V15.4721C49.4619 6.92711 42.5348 0 33.9898 0H15.4721Z" fill="white"/>
</mask>
<g mask="url(#mask29_3165_11502)">
<path d="M35.2415 14.1994C35.2415 15.5151 34.1743 16.5823 32.8585 16.5823C31.5428 16.5823 30.4756 15.5151 30.4756 14.1994C30.4756 12.8837 31.542 11.8164 32.8585 11.8164C34.1743 11.8173 35.2415 12.8837 35.2415 14.1994Z" fill="#0A668E"/>
</g>
<mask id="mask30_3165_11502" style="mask-type:luminance" maskUnits="userSpaceOnUse" x="0" y="0" width="50" height="48">
<path d="M15.4721 0C6.92711 0 0 6.92711 0 15.4721V32.5279C0 41.0729 6.92711 48 15.4721 48H33.9898C42.5348 48 49.4619 41.0729 49.4619 32.5279V15.4721C49.4619 6.92711 42.5348 0 33.9898 0H15.4721Z" fill="white"/>
</mask>
<g mask="url(#mask30_3165_11502)">
<path d="M35.3446 7.35919C38.8126 7.35919 41.635 10.1807 41.635 13.6495C41.635 17.1184 38.8134 19.9399 35.3446 19.9399C31.8758 19.9399 29.0543 17.1184 29.0543 13.6495C29.0543 10.1815 31.8766 7.35919 35.3446 7.35919ZM35.3446 6.0597C31.1529 6.0597 27.7548 9.45787 27.7548 13.6495C27.7548 17.8412 31.1529 21.2394 35.3446 21.2394C39.5363 21.2394 42.9345 17.8412 42.9345 13.6495C42.9345 9.45787 39.5363 6.0597 35.3446 6.0597Z" fill="#112033"/>
</g>
<mask id="mask31_3165_11502" style="mask-type:luminance" maskUnits="userSpaceOnUse" x="0" y="0" width="50" height="48">
<path d="M15.4721 0C6.92711 0 0 6.92711 0 15.4721V32.5279C0 41.0729 6.92711 48 15.4721 48H33.9898C42.5348 48 49.4619 41.0729 49.4619 32.5279V15.4721C49.4619 6.92711 42.5348 0 33.9898 0H15.4721Z" fill="white"/>
</mask>
<g mask="url(#mask31_3165_11502)">
<path d="M40.3971 12.1665C40.3971 12.7342 39.9366 13.1947 39.3689 13.1947C38.8012 13.1947 38.3407 12.7342 38.3407 12.1665C38.3407 11.5988 38.8012 11.1383 39.3689 11.1383C39.9366 11.1375 40.3971 11.598 40.3971 12.1665Z" fill="#FEFDF4"/>
</g>
<mask id="mask32_3165_11502" style="mask-type:luminance" maskUnits="userSpaceOnUse" x="0" y="0" width="50" height="48">
<path d="M15.4721 0C6.92711 0 0 6.92711 0 15.4721V32.5279C0 41.0729 6.92711 48 15.4721 48H33.9898C42.5348 48 49.4619 41.0729 49.4619 32.5279V15.4721C49.4619 6.92711 42.5348 0 33.9898 0H15.4721Z" fill="white"/>
</mask>
<g mask="url(#mask32_3165_11502)">
<path d="M33.5058 9.77137C33.5058 10.2887 33.1631 10.6461 32.6465 10.6461C32.1292 10.6461 31.7101 10.227 31.7101 9.70964C31.7101 9.19228 32.1292 8.7732 32.6465 8.7732C32.8739 8.7732 33.0827 8.92995 33.2451 9.06477C33.4522 9.23777 33.5058 9.48223 33.5058 9.77137Z" fill="#FEFDF4"/>
</g>
<mask id="mask33_3165_11502" style="mask-type:luminance" maskUnits="userSpaceOnUse" x="0" y="0" width="50" height="48">
<path d="M15.4721 0C6.92711 0 0 6.92711 0 15.4721V32.5279C0 41.0729 6.92711 48 15.4721 48H33.9898C42.5348 48 49.4619 41.0729 49.4619 32.5279V15.4721C49.4619 6.92711 42.5348 0 33.9898 0H15.4721Z" fill="white"/>
</mask>
<g mask="url(#mask33_3165_11502)">
<path d="M36.0236 10.6242C35.5314 10.6242 35.0384 10.5202 34.5884 10.3212C34.2213 10.1588 34.0548 9.72914 34.2173 9.36203C34.3797 8.99492 34.8094 8.82843 35.1765 8.99086C35.3754 9.07858 35.6963 9.18091 36.0894 9.16792C36.4857 9.15492 36.8 9.03066 36.9933 8.92833C37.3491 8.74152 37.7884 8.87797 37.9761 9.23289C38.1637 9.58863 38.0264 10.028 37.6715 10.2156C37.2004 10.4642 36.6693 10.6047 36.1373 10.6217C36.0991 10.6234 36.0617 10.6242 36.0236 10.6242Z" fill="#FEFDF4"/>
</g>
</g>
<path d="M62.9019 22V7.1H72.8019V9.5H65.6219V13.32H72.4019V15.72H65.6219V19.6H72.8019V22H62.9019ZM77.8764 22.24C77.1164 22.24 76.4564 22.1133 75.8964 21.86C75.3364 21.6067 74.9031 21.2467 74.5964 20.78C74.2898 20.3 74.1364 19.7467 74.1364 19.12C74.1364 18.52 74.2698 17.9867 74.5364 17.52C74.8031 17.04 75.2164 16.64 75.7764 16.32C76.3364 16 77.0431 15.7733 77.8964 15.64L81.4564 15.06V17.06L78.3964 17.58C77.8764 17.6733 77.4898 17.84 77.2364 18.08C76.9831 18.32 76.8564 18.6333 76.8564 19.02C76.8564 19.3933 76.9964 19.6933 77.2764 19.92C77.5698 20.1333 77.9298 20.24 78.3564 20.24C78.9031 20.24 79.3831 20.1267 79.7964 19.9C80.2231 19.66 80.5498 19.3333 80.7764 18.92C81.0164 18.5067 81.1364 18.0533 81.1364 17.56V14.76C81.1364 14.2933 80.9498 13.9067 80.5764 13.6C80.2164 13.28 79.7364 13.12 79.1364 13.12C78.5764 13.12 78.0764 13.2733 77.6364 13.58C77.2098 13.8733 76.8964 14.2667 76.6964 14.76L74.5564 13.72C74.7698 13.1467 75.1031 12.6533 75.5564 12.24C76.0231 11.8133 76.5698 11.48 77.1964 11.24C77.8231 11 78.5031 10.88 79.2364 10.88C80.1298 10.88 80.9164 11.0467 81.5964 11.38C82.2764 11.7 82.8031 12.1533 83.1764 12.74C83.5631 13.3133 83.7564 13.9867 83.7564 14.76V22H81.2764V20.14L81.8364 20.1C81.5564 20.5667 81.2231 20.96 80.8364 21.28C80.4498 21.5867 80.0098 21.8267 79.5164 22C79.0231 22.16 78.4764 22.24 77.8764 22.24ZM90.318 22.24C89.158 22.24 88.1447 21.9667 87.278 21.42C86.4247 20.86 85.838 20.1067 85.518 19.16L87.478 18.22C87.758 18.8333 88.1447 19.3133 88.638 19.66C89.1447 20.0067 89.7047 20.18 90.318 20.18C90.798 20.18 91.178 20.0733 91.458 19.86C91.738 19.6467 91.878 19.3667 91.878 19.02C91.878 18.8067 91.818 18.6333 91.698 18.5C91.5913 18.3533 91.438 18.2333 91.238 18.14C91.0513 18.0333 90.8447 17.9467 90.618 17.88L88.838 17.38C87.918 17.1133 87.218 16.7067 86.738 16.16C86.2713 15.6133 86.038 14.9667 86.038 14.22C86.038 13.5533 86.2047 12.9733 86.538 12.48C86.8847 11.9733 87.358 11.58 87.958 11.3C88.5713 11.02 89.2713 10.88 90.058 10.88C91.0847 10.88 91.9913 11.1267 92.778 11.62C93.5647 12.1133 94.1247 12.8067 94.458 13.7L92.458 14.64C92.2713 14.1467 91.958 13.7533 91.518 13.46C91.078 13.1667 90.5847 13.02 90.038 13.02C89.598 13.02 89.2513 13.12 88.998 13.32C88.7447 13.52 88.618 13.78 88.618 14.1C88.618 14.3 88.6713 14.4733 88.778 14.62C88.8847 14.7667 89.0313 14.8867 89.218 14.98C89.418 15.0733 89.6447 15.16 89.898 15.24L91.638 15.76C92.5313 16.0267 93.218 16.4267 93.698 16.96C94.1913 17.4933 94.438 18.1467 94.438 18.92C94.438 19.5733 94.2647 20.1533 93.918 20.66C93.5713 21.1533 93.0913 21.54 92.478 21.82C91.8647 22.1 91.1447 22.24 90.318 22.24ZM97.5761 26.42C97.2828 26.42 96.9961 26.3933 96.7161 26.34C96.4361 26.3 96.1828 26.2267 95.9561 26.12V23.92C96.1295 23.96 96.3361 24 96.5761 24.04C96.8295 24.08 97.0628 24.1 97.2761 24.1C97.8761 24.1 98.3095 23.96 98.5761 23.68C98.8561 23.4 99.1028 23.0333 99.3161 22.58L100.036 20.9L99.9961 23.1L95.2561 11.12H98.0761L101.396 19.96H100.396L103.696 11.12H106.536L101.796 23.1C101.516 23.8067 101.176 24.4067 100.776 24.9C100.376 25.3933 99.9095 25.7667 99.3761 26.02C98.8561 26.2867 98.2561 26.42 97.5761 26.42ZM111.75 22V7.1H114.47V22H111.75ZM117.116 22V11.12H119.576V13.26L119.376 12.88C119.629 12.2267 120.042 11.7333 120.616 11.4C121.202 11.0533 121.882 10.88 122.656 10.88C123.456 10.88 124.162 11.0533 124.776 11.4C125.402 11.7467 125.889 12.2333 126.236 12.86C126.582 13.4733 126.756 14.1867 126.756 15V22H124.136V15.62C124.136 15.14 124.042 14.7267 123.856 14.38C123.669 14.0333 123.409 13.7667 123.076 13.58C122.756 13.38 122.376 13.28 121.936 13.28C121.509 13.28 121.129 13.38 120.796 13.58C120.462 13.7667 120.202 14.0333 120.016 14.38C119.829 14.7267 119.736 15.14 119.736 15.62V22H117.116ZM133.111 22.24C131.951 22.24 130.938 21.9667 130.071 21.42C129.218 20.86 128.631 20.1067 128.311 19.16L130.271 18.22C130.551 18.8333 130.938 19.3133 131.431 19.66C131.938 20.0067 132.498 20.18 133.111 20.18C133.591 20.18 133.971 20.0733 134.251 19.86C134.531 19.6467 134.671 19.3667 134.671 19.02C134.671 18.8067 134.611 18.6333 134.491 18.5C134.384 18.3533 134.231 18.2333 134.031 18.14C133.844 18.0333 133.638 17.9467 133.411 17.88L131.631 17.38C130.711 17.1133 130.011 16.7067 129.531 16.16C129.064 15.6133 128.831 14.9667 128.831 14.22C128.831 13.5533 128.998 12.9733 129.331 12.48C129.678 11.9733 130.151 11.58 130.751 11.3C131.364 11.02 132.064 10.88 132.851 10.88C133.878 10.88 134.784 11.1267 135.571 11.62C136.358 12.1133 136.918 12.8067 137.251 13.7L135.251 14.64C135.064 14.1467 134.751 13.7533 134.311 13.46C133.871 13.1667 133.378 13.02 132.831 13.02C132.391 13.02 132.044 13.12 131.791 13.32C131.538 13.52 131.411 13.78 131.411 14.1C131.411 14.3 131.464 14.4733 131.571 14.62C131.678 14.7667 131.824 14.8867 132.011 14.98C132.211 15.0733 132.438 15.16 132.691 15.24L134.431 15.76C135.324 16.0267 136.011 16.4267 136.491 16.96C136.984 17.4933 137.231 18.1467 137.231 18.92C137.231 19.5733 137.058 20.1533 136.711 20.66C136.364 21.1533 135.884 21.54 135.271 21.82C134.658 22.1 133.938 22.24 133.111 22.24ZM139.244 26V11.12H141.704V13.28L141.464 12.74C141.838 12.1533 142.344 11.7 142.984 11.38C143.624 11.0467 144.364 10.88 145.204 10.88C146.231 10.88 147.158 11.1333 147.984 11.64C148.811 12.1467 149.464 12.8267 149.944 13.68C150.438 14.5333 150.684 15.4933 150.684 16.56C150.684 17.6133 150.444 18.5733 149.964 19.44C149.484 20.3067 148.831 20.9933 148.004 21.5C147.178 21.9933 146.238 22.24 145.184 22.24C144.398 22.24 143.671 22.0867 143.004 21.78C142.351 21.46 141.831 21.0067 141.444 20.42L141.864 19.9V26H139.244ZM144.884 19.84C145.484 19.84 146.018 19.7 146.484 19.42C146.951 19.14 147.311 18.7533 147.564 18.26C147.831 17.7667 147.964 17.2 147.964 16.56C147.964 15.92 147.831 15.36 147.564 14.88C147.311 14.3867 146.951 14 146.484 13.72C146.018 13.4267 145.484 13.28 144.884 13.28C144.311 13.28 143.791 13.42 143.324 13.7C142.871 13.98 142.511 14.3733 142.244 14.88C141.991 15.3733 141.864 15.9333 141.864 16.56C141.864 17.2 141.991 17.7667 142.244 18.26C142.511 18.7533 142.871 19.14 143.324 19.42C143.791 19.7 144.311 19.84 144.884 19.84ZM157.842 22.24C156.722 22.24 155.742 21.9867 154.902 21.48C154.062 20.9733 153.409 20.2867 152.942 19.42C152.475 18.5533 152.242 17.5933 152.242 16.54C152.242 15.4467 152.475 14.48 152.942 13.64C153.422 12.7867 154.069 12.1133 154.882 11.62C155.709 11.1267 156.629 10.88 157.642 10.88C158.495 10.88 159.242 11.02 159.882 11.3C160.535 11.58 161.089 11.9667 161.542 12.46C161.995 12.9533 162.342 13.52 162.582 14.16C162.822 14.7867 162.942 15.4667 162.942 16.2C162.942 16.3867 162.929 16.58 162.902 16.78C162.889 16.98 162.855 17.1533 162.802 17.3H154.402V15.3H161.322L160.082 16.24C160.202 15.6267 160.169 15.08 159.982 14.6C159.809 14.12 159.515 13.74 159.102 13.46C158.702 13.18 158.215 13.04 157.642 13.04C157.095 13.04 156.609 13.18 156.182 13.46C155.755 13.7267 155.429 14.1267 155.202 14.66C154.989 15.18 154.909 15.8133 154.962 16.56C154.909 17.2267 154.995 17.82 155.222 18.34C155.462 18.8467 155.809 19.24 156.262 19.52C156.729 19.8 157.262 19.94 157.862 19.94C158.462 19.94 158.969 19.8133 159.382 19.56C159.809 19.3067 160.142 18.9667 160.382 18.54L162.502 19.58C162.289 20.1 161.955 20.56 161.502 20.96C161.049 21.36 160.509 21.6733 159.882 21.9C159.269 22.1267 158.589 22.24 157.842 22.24ZM170.168 22.24C169.088 22.24 168.115 21.9933 167.248 21.5C166.395 20.9933 165.721 20.3133 165.228 19.46C164.735 18.5933 164.488 17.62 164.488 16.54C164.488 15.46 164.735 14.4933 165.228 13.64C165.721 12.7867 166.395 12.1133 167.248 11.62C168.115 11.1267 169.088 10.88 170.168 10.88C170.941 10.88 171.661 11.02 172.328 11.3C172.995 11.5667 173.568 11.94 174.048 12.42C174.541 12.8867 174.895 13.4467 175.108 14.1L172.808 15.1C172.608 14.5533 172.268 14.1133 171.788 13.78C171.321 13.4467 170.781 13.28 170.168 13.28C169.595 13.28 169.081 13.42 168.628 13.7C168.188 13.98 167.841 14.3667 167.588 14.86C167.335 15.3533 167.208 15.92 167.208 16.56C167.208 17.2 167.335 17.7667 167.588 18.26C167.841 18.7533 168.188 19.14 168.628 19.42C169.081 19.7 169.595 19.84 170.168 19.84C170.795 19.84 171.341 19.6733 171.808 19.34C172.275 19.0067 172.608 18.56 172.808 18L175.108 19.04C174.895 19.6533 174.548 20.2067 174.068 20.7C173.588 21.18 173.015 21.56 172.348 21.84C171.681 22.1067 170.955 22.24 170.168 22.24ZM182.056 22.12C180.829 22.12 179.876 21.7867 179.196 21.12C178.529 20.44 178.196 19.4867 178.196 18.26V13.46H176.316V11.12H176.516C177.049 11.12 177.463 10.98 177.756 10.7C178.049 10.42 178.196 10.0133 178.196 9.48V8.64H180.816V11.12H183.316V13.46H180.816V18.12C180.816 18.48 180.876 18.7867 180.996 19.04C181.129 19.2933 181.329 19.4867 181.596 19.62C181.876 19.7533 182.229 19.82 182.656 19.82C182.749 19.82 182.856 19.8133 182.976 19.8C183.109 19.7867 183.236 19.7733 183.356 19.76V22C183.169 22.0267 182.956 22.0533 182.716 22.08C182.476 22.1067 182.256 22.12 182.056 22.12ZM185.358 22V11.12H187.978V22H185.358ZM185.358 9.9V7.1H187.978V9.9H185.358ZM195.717 22.24C194.65 22.24 193.677 21.9933 192.797 21.5C191.93 21.0067 191.237 20.3333 190.717 19.48C190.21 18.6267 189.957 17.6533 189.957 16.56C189.957 15.4667 190.21 14.4933 190.717 13.64C191.237 12.7867 191.93 12.1133 192.797 11.62C193.663 11.1267 194.637 10.88 195.717 10.88C196.783 10.88 197.75 11.1267 198.617 11.62C199.483 12.1133 200.17 12.7867 200.677 13.64C201.197 14.48 201.457 15.4533 201.457 16.56C201.457 17.6533 201.197 18.6267 200.677 19.48C200.157 20.3333 199.463 21.0067 198.597 21.5C197.73 21.9933 196.77 22.24 195.717 22.24ZM195.717 19.84C196.303 19.84 196.817 19.7 197.257 19.42C197.71 19.14 198.063 18.7533 198.317 18.26C198.583 17.7533 198.717 17.1867 198.717 16.56C198.717 15.92 198.583 15.36 198.317 14.88C198.063 14.3867 197.71 14 197.257 13.72C196.817 13.4267 196.303 13.28 195.717 13.28C195.117 13.28 194.59 13.4267 194.137 13.72C193.683 14 193.323 14.3867 193.057 14.88C192.803 15.36 192.677 15.92 192.677 16.56C192.677 17.1867 192.803 17.7533 193.057 18.26C193.323 18.7533 193.683 19.14 194.137 19.42C194.59 19.7 195.117 19.84 195.717 19.84ZM203.444 22V11.12H205.904V13.26L205.704 12.88C205.957 12.2267 206.37 11.7333 206.944 11.4C207.53 11.0533 208.21 10.88 208.984 10.88C209.784 10.88 210.49 11.0533 211.104 11.4C211.73 11.7467 212.217 12.2333 212.564 12.86C212.91 13.4733 213.084 14.1867 213.084 15V22H210.464V15.62C210.464 15.14 210.37 14.7267 210.184 14.38C209.997 14.0333 209.737 13.7667 209.404 13.58C209.084 13.38 208.704 13.28 208.264 13.28C207.837 13.28 207.457 13.38 207.124 13.58C206.79 13.7667 206.53 14.0333 206.344 14.38C206.157 14.7267 206.064 15.14 206.064 15.62V22H203.444Z" fill="#100A55"/>
<path opacity="0.5" d="M61.5939 43L64.7979 34.06H66.1899L69.3939 43H68.1339L67.4019 40.9H63.5859L62.8539 43H61.5939ZM63.9579 39.82H67.0299L65.3259 34.912H65.6619L63.9579 39.82ZM73.094 43.144C72.486 43.144 71.938 42.996 71.45 42.7C70.97 42.404 70.59 42 70.31 41.488C70.03 40.976 69.89 40.404 69.89 39.772C69.89 39.124 70.03 38.548 70.31 38.044C70.59 37.532 70.97 37.128 71.45 36.832C71.938 36.536 72.486 36.388 73.094 36.388C73.63 36.388 74.106 36.504 74.522 36.736C74.938 36.96 75.266 37.264 75.506 37.648L75.326 37.924V33.916H76.454V43H75.362V41.62L75.506 41.812C75.282 42.236 74.954 42.564 74.522 42.796C74.098 43.028 73.622 43.144 73.094 43.144ZM73.19 42.064C73.598 42.064 73.962 41.964 74.282 41.764C74.602 41.564 74.854 41.292 75.038 40.948C75.23 40.596 75.326 40.204 75.326 39.772C75.326 39.332 75.23 38.94 75.038 38.596C74.854 38.244 74.602 37.968 74.282 37.768C73.962 37.568 73.598 37.468 73.19 37.468C72.79 37.468 72.426 37.572 72.098 37.78C71.778 37.98 71.526 38.252 71.342 38.596C71.158 38.932 71.066 39.324 71.066 39.772C71.066 40.204 71.158 40.596 71.342 40.948C71.526 41.292 71.778 41.564 72.098 41.764C72.418 41.964 72.782 42.064 73.19 42.064ZM78.1814 43V36.532H79.2734V37.852L79.1174 37.648C79.2774 37.24 79.5334 36.928 79.8854 36.712C80.2374 36.496 80.6334 36.388 81.0734 36.388C81.5774 36.388 82.0294 36.528 82.4294 36.808C82.8374 37.088 83.1174 37.456 83.2694 37.912L82.9574 37.924C83.1254 37.42 83.4094 37.04 83.8094 36.784C84.2094 36.52 84.6534 36.388 85.1414 36.388C85.5894 36.388 85.9934 36.492 86.3534 36.7C86.7214 36.908 87.0134 37.196 87.2294 37.564C87.4454 37.932 87.5534 38.348 87.5534 38.812V43H86.4254V39.172C86.4254 38.812 86.3614 38.508 86.2334 38.26C86.1054 38.012 85.9294 37.82 85.7054 37.684C85.4894 37.54 85.2334 37.468 84.9374 37.468C84.6494 37.468 84.3894 37.54 84.1574 37.684C83.9334 37.82 83.7534 38.016 83.6174 38.272C83.4894 38.52 83.4254 38.82 83.4254 39.172V43H82.2974V39.172C82.2974 38.812 82.2334 38.508 82.1054 38.26C81.9774 38.012 81.8014 37.82 81.5774 37.684C81.3614 37.54 81.1054 37.468 80.8094 37.468C80.5214 37.468 80.2614 37.54 80.0294 37.684C79.8054 37.82 79.6254 38.016 79.4894 38.272C79.3614 38.52 79.2974 38.82 79.2974 39.172V43H78.1814ZM89.1384 43V36.532H90.2544V43H89.1384ZM89.1384 35.5V34.06H90.2544V35.5H89.1384ZM91.9861 43V36.532H93.0781V37.792L92.8981 37.684C93.0581 37.276 93.3141 36.96 93.6661 36.736C94.0261 36.504 94.4461 36.388 94.9261 36.388C95.3901 36.388 95.8021 36.492 96.1621 36.7C96.5301 36.908 96.8181 37.196 97.0261 37.564C97.2421 37.932 97.3501 38.348 97.3501 38.812V43H96.2221V39.172C96.2221 38.812 96.1581 38.508 96.0301 38.26C95.9021 38.012 95.7181 37.82 95.4781 37.684C95.2461 37.54 94.9781 37.468 94.6741 37.468C94.3701 37.468 94.0981 37.54 93.8581 37.684C93.6261 37.82 93.4421 38.016 93.3061 38.272C93.1701 38.52 93.1021 38.82 93.1021 39.172V43H91.9861ZM101.153 43V34.06H104.309C104.901 34.06 105.421 34.172 105.869 34.396C106.317 34.62 106.665 34.94 106.913 35.356C107.169 35.772 107.297 36.26 107.297 36.82C107.297 37.38 107.169 37.868 106.913 38.284C106.665 38.692 106.317 39.012 105.869 39.244C105.429 39.468 104.909 39.58 104.309 39.58H102.329V43H101.153ZM102.329 38.5H104.345C104.705 38.5 105.017 38.432 105.281 38.296C105.545 38.16 105.749 37.964 105.893 37.708C106.037 37.452 106.109 37.156 106.109 36.82C106.109 36.476 106.037 36.18 105.893 35.932C105.749 35.676 105.545 35.48 105.281 35.344C105.017 35.208 104.705 35.14 104.345 35.14H102.329V38.5ZM110.206 43.144C109.782 43.144 109.406 43.068 109.078 42.916C108.758 42.756 108.506 42.54 108.322 42.268C108.138 41.988 108.046 41.668 108.046 41.308C108.046 40.964 108.118 40.656 108.262 40.384C108.414 40.104 108.646 39.868 108.958 39.676C109.278 39.484 109.678 39.348 110.158 39.268L112.558 38.872V39.808L110.41 40.168C109.994 40.24 109.69 40.372 109.498 40.564C109.314 40.756 109.222 40.992 109.222 41.272C109.222 41.536 109.326 41.756 109.534 41.932C109.75 42.108 110.018 42.196 110.338 42.196C110.746 42.196 111.098 42.112 111.394 41.944C111.698 41.768 111.934 41.532 112.102 41.236C112.278 40.94 112.366 40.612 112.366 40.252V38.608C112.366 38.256 112.234 37.972 111.97 37.756C111.714 37.532 111.374 37.42 110.95 37.42C110.582 37.42 110.254 37.516 109.966 37.708C109.686 37.892 109.478 38.14 109.342 38.452L108.37 37.948C108.49 37.652 108.682 37.388 108.946 37.156C109.21 36.916 109.518 36.728 109.87 36.592C110.222 36.456 110.59 36.388 110.974 36.388C111.47 36.388 111.906 36.484 112.282 36.676C112.658 36.86 112.95 37.12 113.158 37.456C113.374 37.784 113.482 38.168 113.482 38.608V43H112.39V41.776L112.594 41.848C112.458 42.104 112.274 42.328 112.042 42.52C111.81 42.712 111.538 42.864 111.226 42.976C110.914 43.088 110.574 43.144 110.206 43.144ZM115.213 43V36.532H116.305V37.792L116.125 37.684C116.285 37.276 116.541 36.96 116.893 36.736C117.253 36.504 117.673 36.388 118.153 36.388C118.617 36.388 119.029 36.492 119.389 36.7C119.757 36.908 120.045 37.196 120.253 37.564C120.469 37.932 120.577 38.348 120.577 38.812V43H119.449V39.172C119.449 38.812 119.385 38.508 119.257 38.26C119.129 38.012 118.945 37.82 118.705 37.684C118.473 37.54 118.205 37.468 117.901 37.468C117.597 37.468 117.325 37.54 117.085 37.684C116.853 37.82 116.669 38.016 116.533 38.272C116.397 38.52 116.329 38.82 116.329 39.172V43H115.213ZM125.15 43.144C124.526 43.144 123.97 42.996 123.482 42.7C122.994 42.404 122.61 42 122.33 41.488C122.05 40.968 121.91 40.388 121.91 39.748C121.91 39.1 122.046 38.524 122.318 38.02C122.598 37.516 122.974 37.12 123.446 36.832C123.926 36.536 124.462 36.388 125.054 36.388C125.534 36.388 125.958 36.476 126.326 36.652C126.702 36.82 127.018 37.052 127.274 37.348C127.538 37.636 127.738 37.968 127.874 38.344C128.018 38.712 128.09 39.096 128.09 39.496C128.09 39.584 128.082 39.684 128.066 39.796C128.058 39.9 128.046 40 128.03 40.096H122.726V39.136H127.382L126.854 39.568C126.926 39.152 126.886 38.78 126.734 38.452C126.582 38.124 126.358 37.864 126.062 37.672C125.766 37.48 125.43 37.384 125.054 37.384C124.678 37.384 124.334 37.48 124.022 37.672C123.71 37.864 123.466 38.14 123.29 38.5C123.122 38.852 123.054 39.272 123.086 39.76C123.054 40.232 123.126 40.648 123.302 41.008C123.486 41.36 123.742 41.636 124.07 41.836C124.406 42.028 124.77 42.124 125.162 42.124C125.594 42.124 125.958 42.024 126.254 41.824C126.55 41.624 126.79 41.368 126.974 41.056L127.91 41.536C127.782 41.832 127.582 42.104 127.31 42.352C127.046 42.592 126.73 42.784 126.362 42.928C126.002 43.072 125.598 43.144 125.15 43.144ZM129.545 43V33.916H130.661V43H129.545Z" fill="#100A55"/>
<defs>
<linearGradient id="paint0_linear_3165_11502" x1="33.8454" y1="49.0506" x2="15.6111" y2="-1.04752" gradientUnits="userSpaceOnUse">
<stop stop-color="#3A7CBF"/>
<stop offset="5.32779e-09" stop-color="#3A7CBF"/>
<stop offset="0.0774" stop-color="#3B83C4"/>
<stop offset="0.5078" stop-color="#46A6DE"/>
<stop offset="0.8279" stop-color="#51BCEC"/>
<stop offset="1" stop-color="#56C4F2"/>
</linearGradient>
<linearGradient id="paint1_linear_3165_11502" x1="33.8454" y1="49.0506" x2="15.6111" y2="-1.04752" gradientUnits="userSpaceOnUse">
<stop stop-color="#47A7DE"/>
<stop offset="5.32779e-09" stop-color="#47A7DE"/>
<stop offset="0.4159" stop-color="#5AB4E2"/>
<stop offset="1" stop-color="#7BCCE8"/>
</linearGradient>
<linearGradient id="paint2_linear_3165_11502" x1="24.4411" y1="48.7668" x2="24.4411" y2="26.2329" gradientUnits="userSpaceOnUse">
<stop stop-color="#D7E1D9"/>
<stop offset="0.1168" stop-color="#D7E1D9"/>
<stop offset="0.2213" stop-color="#DBE4DB"/>
<stop offset="0.3427" stop-color="#E7ECE3"/>
<stop offset="0.472" stop-color="#FAFAF0"/>
<stop offset="0.495" stop-color="#FEFDF2"/>
<stop offset="1" stop-color="#FEFDF2"/>
</linearGradient>
<linearGradient id="paint3_linear_3165_11502" x1="24.2276" y1="33.3386" x2="24.2276" y2="1.70878" gradientUnits="userSpaceOnUse">
<stop stop-color="#D7E1D9"/>
<stop offset="1.38523e-07" stop-color="#D7E1D9"/>
<stop offset="0.0671" stop-color="#E2E8DF"/>
<stop offset="0.2064" stop-color="#F2F4EA"/>
<stop offset="0.3481" stop-color="#FBFBF0"/>
<stop offset="0.495" stop-color="#FEFDF2"/>
<stop offset="1" stop-color="#FEFDF2"/>
</linearGradient>
<clipPath id="clip0_3165_11502">
<rect width="49.4619" height="48" fill="white"/>
</clipPath>
</defs>
</svg>
