<svg width="50" height="48" viewBox="0 0 50 48" fill="none" xmlns="http://www.w3.org/2000/svg">
<g clip-path="url(#clip0_4087_12591)">
<mask id="mask0_4087_12591" style="mask-type:luminance" maskUnits="userSpaceOnUse" x="0" y="0" width="50" height="48">
<path d="M15.4721 0C6.92711 0 0 6.92711 0 15.4721V32.5279C0 41.0729 6.92711 48 15.4721 48H33.9898C42.5348 48 49.4619 41.0729 49.4619 32.5279V15.4721C49.4619 6.92711 42.5348 0 33.9898 0H15.4721Z" fill="white"/>
</mask>
<g mask="url(#mask0_4087_12591)">
<path d="M5.78595 63.8969L-15.4266 5.61462L43.6759 -15.8969L64.8885 42.3854L5.78595 63.8969Z" fill="url(#paint0_linear_4087_12591)"/>
</g>
<mask id="mask1_4087_12591" style="mask-type:luminance" maskUnits="userSpaceOnUse" x="0" y="0" width="50" height="48">
<path d="M9.48142 46.7094C7.64832 45.9346 6.00284 44.8244 4.58883 43.4112C3.17563 41.998 2.06538 40.3517 1.29056 38.5186C0.488122 36.6213 0.0812183 34.6055 0.0812183 32.5279V15.4721C0.0812183 13.3945 0.488122 11.3787 1.29056 9.48142C2.06619 7.64832 3.17563 6.00284 4.58883 4.58883C6.00203 3.17482 7.64832 2.06538 9.48142 1.29056C11.3787 0.488122 13.3945 0.0812183 15.4721 0.0812183H33.9898C36.0674 0.0812183 38.0832 0.488122 39.9805 1.29056C41.8136 2.06538 43.4591 3.17563 44.8723 4.58883C46.2863 6.00203 47.3957 7.64833 48.1706 9.48061C48.9738 11.3787 49.3807 13.3945 49.3807 15.4721V32.5279C49.3807 34.6055 48.9738 36.6213 48.1714 38.5186C47.3965 40.3517 46.2863 41.9972 44.8731 43.4112C43.4599 44.8244 41.8136 45.9346 39.9813 46.7094C38.0832 47.5119 36.0674 47.9188 33.9898 47.9188H15.4721C13.3945 47.9188 11.3787 47.5119 9.48142 46.7094ZM15.4721 0C6.92711 0 0 6.92711 0 15.4721V32.5279C0 41.0729 6.92711 48 15.4721 48H33.9898C42.5348 48 49.4619 41.0729 49.4619 32.5279V15.4721C49.4619 6.92711 42.5348 0 33.9898 0H15.4721Z" fill="white"/>
</mask>
<g mask="url(#mask1_4087_12591)">
<path d="M5.78595 63.8969L-15.4266 5.61462L43.6759 -15.8969L64.8885 42.3854L5.78595 63.8969Z" fill="url(#paint1_linear_4087_12591)"/>
</g>
<mask id="mask2_4087_12591" style="mask-type:luminance" maskUnits="userSpaceOnUse" x="11" y="26" width="27" height="22">
<path d="M11.3665 26.2327V47.4493C12.6741 47.8083 14.0507 48 15.472 48H33.9898C35.2048 48 36.3857 47.8603 37.5204 47.5955V26.2327H11.3665Z" fill="white"/>
</mask>
<g mask="url(#mask2_4087_12591)">
<path d="M37.5204 26.2327H11.3665V48H37.5204V26.2327Z" fill="url(#paint2_linear_4087_12591)"/>
</g>
<mask id="mask3_4087_12591" style="mask-type:luminance" maskUnits="userSpaceOnUse" x="0" y="0" width="50" height="48">
<path d="M15.4721 0C6.92711 0 0 6.92711 0 15.4721V32.5279C0 41.0729 6.92711 48 15.4721 48H33.9898C42.5348 48 49.4619 41.0729 49.4619 32.5279V15.4721C49.4619 6.92711 42.5348 0 33.9898 0H15.4721Z" fill="white"/>
</mask>
<g mask="url(#mask3_4087_12591)">
<path d="M34.3375 42.2709C34.3375 43.957 32.9706 45.323 31.2853 45.323C29.5993 45.323 28.4801 43.9773 28.2332 42.2709C27.9911 40.6026 29.6163 39.2504 31.2853 39.2187C32.9706 39.1862 34.3375 40.5856 34.3375 42.2709Z" fill="#BAC9C4"/>
</g>
<mask id="mask4_4087_12591" style="mask-type:luminance" maskUnits="userSpaceOnUse" x="0" y="0" width="50" height="48">
<path d="M15.4721 0C6.92711 0 0 6.92711 0 15.4721V32.5279C0 41.0729 6.92711 48 15.4721 48H33.9898C42.5348 48 49.4619 41.0729 49.4619 32.5279V15.4721C49.4619 6.92711 42.5348 0 33.9898 0H15.4721Z" fill="white"/>
</mask>
<g mask="url(#mask4_4087_12591)">
<path d="M38.3399 40.5076C37.7397 41.2751 36.8049 41.7681 35.7548 41.7681C33.9428 41.7681 32.4744 40.2997 32.4744 38.4877C32.4744 36.6757 33.9428 35.2073 35.7548 35.2073C36.8244 35.2073 37.7747 35.7198 38.3741 36.5117C38.7899 37.0607 38.7761 39.9505 38.3399 40.5076Z" fill="#BAC9C4"/>
</g>
<mask id="mask5_4087_12591" style="mask-type:luminance" maskUnits="userSpaceOnUse" x="0" y="0" width="50" height="48">
<path d="M15.4721 0C6.92711 0 0 6.92711 0 15.4721V32.5279C0 41.0729 6.92711 48 15.4721 48H33.9898C42.5348 48 49.4619 41.0729 49.4619 32.5279V15.4721C49.4619 6.92711 42.5348 0 33.9898 0H15.4721Z" fill="white"/>
</mask>
<g mask="url(#mask5_4087_12591)">
<path d="M18.5308 36.4305C18.5308 39.0392 16.4159 41.1541 13.8072 41.1541C12.679 41.1541 11.6443 40.7586 10.8321 40.0999C9.76574 39.2341 10.3643 33.5667 11.3617 32.7009C12.1909 31.9813 12.623 31.7076 13.8072 31.7076C16.4159 31.7068 18.5308 33.8217 18.5308 36.4305Z" fill="#BAC9C4"/>
</g>
<mask id="mask6_4087_12591" style="mask-type:luminance" maskUnits="userSpaceOnUse" x="0" y="0" width="50" height="48">
<path d="M15.4721 0C6.92711 0 0 6.92711 0 15.4721V32.5279C0 41.0729 6.92711 48 15.4721 48H33.9898C42.5348 48 49.4619 41.0729 49.4619 32.5279V15.4721C49.4619 6.92711 42.5348 0 33.9898 0H15.4721Z" fill="white"/>
</mask>
<g mask="url(#mask6_4087_12591)">
<path d="M37.5204 48.7976H11.3665V26.2327H37.5204V48.7976ZM38.8435 24.9096H37.5204H11.3665H10.0435V26.2327V48.7976V50.1206H11.3665H37.5204H38.8435V48.7976V26.2327V24.9096Z" fill="#112033"/>
</g>
<mask id="mask7_4087_12591" style="mask-type:luminance" maskUnits="userSpaceOnUse" x="7" y="1" width="35" height="33">
<path d="M7.13013 17.5237C7.13013 26.2579 14.7833 33.3385 24.2241 33.3385C33.665 33.3385 41.3181 26.2579 41.3181 17.5237C41.3181 8.78944 33.665 1.70883 24.2241 1.70883C14.7841 1.70883 7.13013 8.78944 7.13013 17.5237Z" fill="white"/>
</mask>
<g mask="url(#mask7_4087_12591)">
<path d="M41.319 1.70883H7.13013V33.3385H41.319V1.70883Z" fill="url(#paint3_linear_4087_12591)"/>
</g>
<mask id="mask8_4087_12591" style="mask-type:luminance" maskUnits="userSpaceOnUse" x="0" y="0" width="50" height="48">
<path d="M15.4721 0C6.92711 0 0 6.92711 0 15.4721V32.5279C0 41.0729 6.92711 48 15.4721 48H33.9898C42.5348 48 49.4619 41.0729 49.4619 32.5279V15.4721C49.4619 6.92711 42.5348 0 33.9898 0H15.4721Z" fill="white"/>
</mask>
<g mask="url(#mask8_4087_12591)">
<path d="M24.225 3.00832C26.37 3.00832 28.4492 3.39655 30.4057 4.16162C32.2892 4.89909 33.9801 5.95249 35.4307 7.29421C38.3903 10.0321 40.0203 13.665 40.0203 17.5228C40.0203 21.3807 38.3903 25.0136 35.4307 27.7515C33.9801 29.0932 32.29 30.1474 30.4057 30.8849C28.45 31.6499 26.37 32.0382 24.225 32.0382C22.08 32.0382 20.0008 31.6499 18.0443 30.8849C16.1608 30.1474 14.4699 29.0932 13.0193 27.7515C10.0597 25.0136 8.42966 21.3807 8.42966 17.5228C8.42966 13.665 10.0597 10.0321 13.0193 7.29421C14.4699 5.95249 16.16 4.89827 18.0443 4.16162C20.0008 3.39655 22.08 3.00832 24.225 3.00832ZM24.225 1.70883C14.7842 1.70883 7.13098 8.78944 7.13098 17.5237C7.13098 26.2579 14.7842 33.3385 24.225 33.3385C33.6658 33.3385 41.319 26.2579 41.319 17.5237C41.319 8.78944 33.6658 1.70883 24.225 1.70883Z" fill="#112033"/>
</g>
<mask id="mask9_4087_12591" style="mask-type:luminance" maskUnits="userSpaceOnUse" x="0" y="0" width="50" height="48">
<path d="M15.4721 0C6.92711 0 0 6.92711 0 15.4721V32.5279C0 41.0729 6.92711 48 15.4721 48H33.9898C42.5348 48 49.4619 41.0729 49.4619 32.5279V15.4721C49.4619 6.92711 42.5348 0 33.9898 0H15.4721Z" fill="white"/>
</mask>
<g mask="url(#mask9_4087_12591)">
<path d="M41.2987 16.7561C40.8829 23.9464 33.3978 27.7702 24.2234 27.7702C15.0611 27.7702 7.58337 23.9561 7.14966 16.7854C7.13748 17.0307 7.13098 17.2768 7.13098 17.5237C7.13098 26.2579 14.7842 33.3385 24.225 33.3385C33.6658 33.3385 41.319 26.2579 41.319 17.5237C41.319 17.2662 41.3117 17.0104 41.2987 16.7561Z" fill="#BCCCCB"/>
</g>
<mask id="mask10_4087_12591" style="mask-type:luminance" maskUnits="userSpaceOnUse" x="0" y="0" width="50" height="48">
<path d="M15.4721 0C6.92711 0 0 6.92711 0 15.4721V32.5279C0 41.0729 6.92711 48 15.4721 48H33.9898C42.5348 48 49.4619 41.0729 49.4619 32.5279V15.4721C49.4619 6.92711 42.5348 0 33.9898 0H15.4721Z" fill="white"/>
</mask>
<g mask="url(#mask10_4087_12591)">
<path d="M24.225 3.00832C26.37 3.00832 28.4492 3.39655 30.4057 4.16162C32.2892 4.89909 33.9801 5.95249 35.4307 7.29421C38.3903 10.0321 40.0203 13.665 40.0203 17.5228C40.0203 21.3807 38.3903 25.0136 35.4307 27.7515C33.9801 29.0932 32.29 30.1474 30.4057 30.8849C28.45 31.6499 26.37 32.0382 24.225 32.0382C22.08 32.0382 20.0008 31.6499 18.0443 30.8849C16.1608 30.1474 14.4699 29.0932 13.0193 27.7515C10.0597 25.0136 8.42966 21.3807 8.42966 17.5228C8.42966 13.665 10.0597 10.0321 13.0193 7.29421C14.4699 5.95249 16.16 4.89827 18.0443 4.16162C20.0008 3.39655 22.08 3.00832 24.225 3.00832ZM24.225 1.70883C14.7842 1.70883 7.13098 8.78944 7.13098 17.5237C7.13098 26.2579 14.7842 33.3385 24.225 33.3385C33.6658 33.3385 41.319 26.2579 41.319 17.5237C41.319 8.78944 33.6658 1.70883 24.225 1.70883Z" fill="#112033"/>
</g>
<mask id="mask11_4087_12591" style="mask-type:luminance" maskUnits="userSpaceOnUse" x="0" y="0" width="50" height="48">
<path d="M15.4721 0C6.92711 0 0 6.92711 0 15.4721V32.5279C0 41.0729 6.92711 48 15.4721 48H33.9898C42.5348 48 49.4619 41.0729 49.4619 32.5279V15.4721C49.4619 6.92711 42.5348 0 33.9898 0H15.4721Z" fill="white"/>
</mask>
<g mask="url(#mask11_4087_12591)">
<path d="M19.2171 14.1994C19.2171 15.5151 18.1499 16.5823 16.8341 16.5823C15.5184 16.5823 14.4512 15.5151 14.4512 14.1994C14.4512 12.8837 15.5176 11.8164 16.8341 11.8164C18.1507 11.8173 19.2171 12.8837 19.2171 14.1994Z" fill="#112033"/>
</g>
<mask id="mask12_4087_12591" style="mask-type:luminance" maskUnits="userSpaceOnUse" x="0" y="0" width="50" height="48">
<path d="M15.4721 0C6.92711 0 0 6.92711 0 15.4721V32.5279C0 41.0729 6.92711 48 15.4721 48H33.9898C42.5348 48 49.4619 41.0729 49.4619 32.5279V15.4721C49.4619 6.92711 42.5348 0 33.9898 0H15.4721Z" fill="white"/>
</mask>
<g mask="url(#mask12_4087_12591)">
<path d="M19.5809 30.4877C19.5809 34.0248 16.8439 36.8926 13.4684 36.8926C10.093 36.8926 7.35596 34.0248 7.35596 30.4877C7.35596 26.9507 10.093 24.0828 13.4684 24.0828C16.8439 24.0828 19.5809 26.9507 19.5809 30.4877Z" fill="#FEFDF4"/>
</g>
<mask id="mask13_4087_12591" style="mask-type:luminance" maskUnits="userSpaceOnUse" x="0" y="0" width="50" height="48">
<path d="M15.4721 0C6.92711 0 0 6.92711 0 15.4721V32.5279C0 41.0729 6.92711 48 15.4721 48H33.9898C42.5348 48 49.4619 41.0729 49.4619 32.5279V15.4721C49.4619 6.92711 42.5348 0 33.9898 0H15.4721Z" fill="white"/>
</mask>
<g mask="url(#mask13_4087_12591)">
<path d="M13.4684 25.3823C16.1227 25.3823 18.2814 27.6727 18.2814 30.4877C18.2814 33.3027 16.1227 35.5931 13.4684 35.5931C10.8142 35.5931 8.65545 33.3027 8.65545 30.4877C8.65545 27.6727 10.815 25.3823 13.4684 25.3823ZM13.4684 24.0828C10.0922 24.0828 7.35596 26.9507 7.35596 30.4877C7.35596 34.0248 10.0922 36.8926 13.4684 36.8926C16.8447 36.8926 19.5809 34.0248 19.5809 30.4877C19.5809 26.9507 16.8447 24.0828 13.4684 24.0828Z" fill="#112033"/>
</g>
<mask id="mask14_4087_12591" style="mask-type:luminance" maskUnits="userSpaceOnUse" x="0" y="0" width="50" height="48">
<path d="M15.4721 0C6.92711 0 0 6.92711 0 15.4721V32.5279C0 41.0729 6.92711 48 15.4721 48H33.9898C42.5348 48 49.4619 41.0729 49.4619 32.5279V15.4721C49.4619 6.92711 42.5348 0 33.9898 0H15.4721Z" fill="white"/>
</mask>
<g mask="url(#mask14_4087_12591)">
<path d="M32.8414 39.0246C32.4426 40.6855 30.7728 41.7088 29.1119 41.31C27.451 40.9113 26.4276 39.2414 26.8264 37.5805L31.3153 22.0914L36.718 23.3194L32.8414 39.0246Z" fill="#FEFDF4"/>
</g>
<mask id="mask15_4087_12591" style="mask-type:luminance" maskUnits="userSpaceOnUse" x="0" y="0" width="50" height="48">
<path d="M15.4721 0C6.92711 0 0 6.92711 0 15.4721V32.5279C0 41.0729 6.92711 48 15.4721 48H33.9898C42.5348 48 49.4619 41.0729 49.4619 32.5279V15.4721C49.4619 6.92711 42.5348 0 33.9898 0H15.4721Z" fill="white"/>
</mask>
<g mask="url(#mask15_4087_12591)">
<path d="M32.2217 23.6305L35.1383 24.2932L31.5793 38.7135L31.5785 38.7176L31.5777 38.7216C31.3836 39.5314 30.6672 40.0966 29.8363 40.0966C29.6958 40.0966 29.5537 40.0796 29.4148 40.0463C28.9494 39.9342 28.5547 39.6483 28.3046 39.2398C28.0593 38.8386 27.9805 38.3675 28.0837 37.9094L32.2217 23.6305ZM31.3153 22.0914L26.8264 37.5805C26.4276 39.2414 27.451 40.9113 29.1119 41.31C29.3547 41.3685 29.5976 41.3961 29.8363 41.3961C31.2333 41.3961 32.5003 40.4426 32.8406 39.0246L36.7172 23.3194L31.3153 22.0914Z" fill="#112033"/>
</g>
<mask id="mask16_4087_12591" style="mask-type:luminance" maskUnits="userSpaceOnUse" x="0" y="0" width="50" height="48">
<path d="M15.4721 0C6.92711 0 0 6.92711 0 15.4721V32.5279C0 41.0729 6.92711 48 15.4721 48H33.9898C42.5348 48 49.4619 41.0729 49.4619 32.5279V15.4721C49.4619 6.92711 42.5348 0 33.9898 0H15.4721Z" fill="white"/>
</mask>
<g mask="url(#mask16_4087_12591)">
<path d="M29.2703 33.8729C28.9357 34.2441 29.211 35.0368 29.4547 35.4843C29.8307 36.1754 30.1637 36.1023 30.7672 36.9576C31.1058 37.4384 31.4072 37.8794 31.274 38.3391C31.1448 38.7842 30.6835 38.9888 30.5836 39.0294C30.0061 39.2666 29.2906 39.0489 28.8796 38.638C28.3923 38.1507 28.5247 37.5846 28.1203 37.4636C27.8506 37.3831 27.5095 37.5505 27.36 37.786C27.2447 37.9687 27.2813 38.2018 27.36 38.6607C27.4526 39.2008 27.4989 39.4713 27.7052 39.7888C27.9343 40.1413 28.2169 40.3314 28.3728 40.4337C28.4459 40.4816 28.77 40.6895 29.2711 40.8024C29.5919 40.8747 30.327 41.0404 31.0206 40.6644C31.3235 40.5003 31.4949 40.2997 31.7345 40.0195C32.2072 39.4664 32.4208 38.9165 32.4939 38.707C32.8074 37.8169 32.4768 37.7559 32.7927 36.7269C32.8553 36.5239 32.9259 36.3371 32.839 36.1511C32.7075 35.8717 32.3631 35.909 31.8717 35.7133C30.9946 35.3641 30.4585 34.5941 30.4212 34.5389C30.1207 34.0962 30.076 33.7454 29.7763 33.6869C29.5944 33.6528 29.3897 33.7405 29.2703 33.8729Z" fill="#BCCCCB"/>
</g>
<mask id="mask17_4087_12591" style="mask-type:luminance" maskUnits="userSpaceOnUse" x="0" y="0" width="50" height="48">
<path d="M15.4721 0C6.92711 0 0 6.92711 0 15.4721V32.5279C0 41.0729 6.92711 48 15.4721 48H33.9898C42.5348 48 49.4619 41.0729 49.4619 32.5279V15.4721C49.4619 6.92711 42.5348 0 33.9898 0H15.4721Z" fill="white"/>
</mask>
<g mask="url(#mask17_4087_12591)">
<path d="M32.2217 23.6305L35.1383 24.2932L31.5793 38.7135L31.5785 38.7176L31.5777 38.7216C31.3836 39.5314 30.6672 40.0966 29.8363 40.0966C29.6958 40.0966 29.5537 40.0796 29.4148 40.0463C28.9494 39.9342 28.5547 39.6483 28.3046 39.2398C28.0593 38.8386 27.9805 38.3675 28.0837 37.9094L32.2217 23.6305ZM31.3153 22.0914L26.8264 37.5805C26.4276 39.2414 27.451 40.9113 29.1119 41.31C29.3547 41.3685 29.5976 41.3961 29.8363 41.3961C31.2333 41.3961 32.5003 40.4426 32.8406 39.0246L36.7172 23.3194L31.3153 22.0914Z" fill="#112033"/>
</g>
<mask id="mask18_4087_12591" style="mask-type:luminance" maskUnits="userSpaceOnUse" x="0" y="0" width="50" height="48">
<path d="M15.4721 0C6.92711 0 0 6.92711 0 15.4721V32.5279C0 41.0729 6.92711 48 15.4721 48H33.9898C42.5348 48 49.4619 41.0729 49.4619 32.5279V15.4721C49.4619 6.92711 42.5348 0 33.9898 0H15.4721Z" fill="white"/>
</mask>
<g mask="url(#mask18_4087_12591)">
<path d="M23.8595 22.8134C23.7839 22.8134 23.7076 22.8118 23.6313 22.8093C20.6148 22.7029 18.8751 20.549 18.5567 20.1186C18.3171 19.7937 18.3854 19.3364 18.7102 19.096C19.0351 18.8564 19.4924 18.9247 19.7328 19.2495C19.9813 19.5858 21.3377 21.2654 23.6832 21.3474C26.2952 21.44 27.8311 19.4729 27.9976 19.2479C28.238 18.9239 28.696 18.8556 29.0201 19.096C29.3442 19.3364 29.4124 19.7945 29.172 20.1186C28.9624 20.4012 27.079 22.8134 23.8595 22.8134Z" fill="#14182D"/>
</g>
<mask id="mask19_4087_12591" style="mask-type:luminance" maskUnits="userSpaceOnUse" x="0" y="0" width="50" height="48">
<path d="M15.4721 0C6.92711 0 0 6.92711 0 15.4721V32.5279C0 41.0729 6.92711 48 15.4721 48H33.9898C42.5348 48 49.4619 41.0729 49.4619 32.5279V15.4721C49.4619 6.92711 42.5348 0 33.9898 0H15.4721Z" fill="white"/>
</mask>
<g mask="url(#mask19_4087_12591)">
<path d="M34.5429 28.696C34.5429 30.8832 32.8503 32.6562 30.763 32.6562C28.6757 32.6562 26.8207 30.8832 26.8207 28.696C26.8207 26.5088 28.6708 24.8504 30.763 24.7358C32.8479 24.6205 34.5429 26.508 34.5429 28.696Z" fill="#FEFDF4"/>
</g>
<mask id="mask20_4087_12591" style="mask-type:luminance" maskUnits="userSpaceOnUse" x="0" y="0" width="50" height="48">
<path d="M15.4721 0C6.92711 0 0 6.92711 0 15.4721V32.5279C0 41.0729 6.92711 48 15.4721 48H33.9898C42.5348 48 49.4619 41.0729 49.4619 32.5279V15.4721C49.4619 6.92711 42.5348 0 33.9898 0H15.4721Z" fill="white"/>
</mask>
<g mask="url(#mask20_4087_12591)">
<path d="M30.9433 25.7048C32.3663 25.7048 33.5683 27.0741 33.5683 28.696C33.5683 30.3423 32.3102 31.6816 30.763 31.6816C30.0126 31.6816 29.2588 31.3616 28.6944 30.8028C28.1145 30.2294 27.7953 29.4806 27.7953 28.6952C27.7953 27.9253 28.1112 27.1943 28.6863 26.6372C29.2507 26.0897 30.0272 25.7511 30.8166 25.7072C30.8588 25.7056 30.9011 25.7048 30.9433 25.7048ZM30.9433 24.7302C30.8832 24.7302 30.8231 24.7318 30.763 24.735C28.6708 24.8504 26.8207 26.508 26.8207 28.6952C26.8207 30.8824 28.6757 32.6554 30.763 32.6554C32.8503 32.6554 34.5429 30.8824 34.5429 28.6952C34.5429 26.5714 32.9445 24.7302 30.9433 24.7302Z" fill="#112033"/>
</g>
<mask id="mask21_4087_12591" style="mask-type:luminance" maskUnits="userSpaceOnUse" x="0" y="0" width="50" height="48">
<path d="M15.4721 0C6.92711 0 0 6.92711 0 15.4721V32.5279C0 41.0729 6.92711 48 15.4721 48H33.9898C42.5348 48 49.4619 41.0729 49.4619 32.5279V15.4721C49.4619 6.92711 42.5348 0 33.9898 0H15.4721Z" fill="white"/>
</mask>
<g mask="url(#mask21_4087_12591)">
<path d="M40.5889 30.8938C40.5889 34.4309 37.8518 37.2987 34.4764 37.2987C31.1009 37.2987 28.3639 34.4309 28.3639 30.8938C28.3639 27.3568 31.1009 24.4889 34.4764 24.4889C37.8518 24.4889 40.5889 27.3568 40.5889 30.8938Z" fill="#FEFDF4"/>
</g>
<mask id="mask22_4087_12591" style="mask-type:luminance" maskUnits="userSpaceOnUse" x="0" y="0" width="50" height="48">
<path d="M15.4721 0C6.92711 0 0 6.92711 0 15.4721V32.5279C0 41.0729 6.92711 48 15.4721 48H33.9898C42.5348 48 49.4619 41.0729 49.4619 32.5279V15.4721C49.4619 6.92711 42.5348 0 33.9898 0H15.4721Z" fill="white"/>
</mask>
<g mask="url(#mask22_4087_12591)">
<path d="M34.4764 25.7884C37.1306 25.7884 39.2894 28.0788 39.2894 30.8938C39.2894 33.7088 37.1306 35.9992 34.4764 35.9992C31.8222 35.9992 29.6634 33.7088 29.6634 30.8938C29.6634 28.0788 31.8222 25.7884 34.4764 25.7884ZM34.4764 24.4889C31.1001 24.4889 28.3639 27.3568 28.3639 30.8938C28.3639 34.4309 31.1009 37.2987 34.4764 37.2987C37.8518 37.2987 40.5889 34.4309 40.5889 30.8938C40.5889 27.3568 37.8518 24.4889 34.4764 24.4889Z" fill="#112033"/>
</g>
<mask id="mask23_4087_12591" style="mask-type:luminance" maskUnits="userSpaceOnUse" x="0" y="0" width="50" height="48">
<path d="M15.4721 0C6.92711 0 0 6.92711 0 15.4721V32.5279C0 41.0729 6.92711 48 15.4721 48H33.9898C42.5348 48 49.4619 41.0729 49.4619 32.5279V15.4721C49.4619 6.92711 42.5348 0 33.9898 0H15.4721Z" fill="white"/>
</mask>
<g mask="url(#mask23_4087_12591)">
<path d="M13.4189 33.7405C10.7103 33.7405 9.02015 31.2341 8.14056 29.4116C7.6232 28.3411 7.47782 29.5659 7.65975 30.5088C8.33954 34.0256 10.279 36.7911 13.4197 36.7911C16.6612 36.7911 18.4837 34.1653 19.1538 30.7777C19.356 29.7559 19.3 28.4621 18.7988 29.643C18.0378 31.4388 16.4719 33.7405 13.4189 33.7405Z" fill="#BCCCCB"/>
</g>
<mask id="mask24_4087_12591" style="mask-type:luminance" maskUnits="userSpaceOnUse" x="0" y="0" width="50" height="48">
<path d="M15.4721 0C6.92711 0 0 6.92711 0 15.4721V32.5279C0 41.0729 6.92711 48 15.4721 48H33.9898C42.5348 48 49.4619 41.0729 49.4619 32.5279V15.4721C49.4619 6.92711 42.5348 0 33.9898 0H15.4721Z" fill="white"/>
</mask>
<g mask="url(#mask24_4087_12591)">
<path d="M34.041 34.1539C31.5183 33.8112 30.2529 31.3267 29.6576 29.5659C29.3076 28.5312 29.0209 29.6219 29.0745 30.4991C29.2751 33.7697 30.7411 36.5206 33.6657 36.9178C36.6846 37.3279 38.7045 35.1797 39.7457 32.1965C40.0601 31.2966 40.1664 30.1182 39.5549 31.1237C38.6249 32.6538 36.8844 34.5405 34.041 34.1539Z" fill="#BCCCCB"/>
</g>
<mask id="mask25_4087_12591" style="mask-type:luminance" maskUnits="userSpaceOnUse" x="0" y="0" width="50" height="48">
<path d="M15.4721 0C6.92711 0 0 6.92711 0 15.4721V32.5279C0 41.0729 6.92711 48 15.4721 48H33.9898C42.5348 48 49.4619 41.0729 49.4619 32.5279V15.4721C49.4619 6.92711 42.5348 0 33.9898 0H15.4721Z" fill="white"/>
</mask>
<g mask="url(#mask25_4087_12591)">
<path d="M13.4684 25.3823C16.1227 25.3823 18.2814 27.6727 18.2814 30.4877C18.2814 33.3027 16.1227 35.5931 13.4684 35.5931C10.8142 35.5931 8.65545 33.3027 8.65545 30.4877C8.65545 27.6727 10.815 25.3823 13.4684 25.3823ZM13.4684 24.0828C10.0922 24.0828 7.35596 26.9507 7.35596 30.4877C7.35596 34.0248 10.0922 36.8926 13.4684 36.8926C16.8447 36.8926 19.5809 34.0248 19.5809 30.4877C19.5809 26.9507 16.8447 24.0828 13.4684 24.0828Z" fill="#112033"/>
</g>
<mask id="mask26_4087_12591" style="mask-type:luminance" maskUnits="userSpaceOnUse" x="0" y="0" width="50" height="48">
<path d="M15.4721 0C6.92711 0 0 6.92711 0 15.4721V32.5279C0 41.0729 6.92711 48 15.4721 48H33.9898C42.5348 48 49.4619 41.0729 49.4619 32.5279V15.4721C49.4619 6.92711 42.5348 0 33.9898 0H15.4721Z" fill="white"/>
</mask>
<g mask="url(#mask26_4087_12591)">
<path d="M34.4764 25.7884C37.1306 25.7884 39.2894 28.0788 39.2894 30.8938C39.2894 33.7088 37.1306 35.9992 34.4764 35.9992C31.8222 35.9992 29.6634 33.7088 29.6634 30.8938C29.6634 28.0788 31.8222 25.7884 34.4764 25.7884ZM34.4764 24.4889C31.1001 24.4889 28.3639 27.3568 28.3639 30.8938C28.3639 34.4309 31.1009 37.2987 34.4764 37.2987C37.8518 37.2987 40.5889 34.4309 40.5889 30.8938C40.5889 27.3568 37.8518 24.4889 34.4764 24.4889Z" fill="#112033"/>
</g>
<mask id="mask27_4087_12591" style="mask-type:luminance" maskUnits="userSpaceOnUse" x="0" y="0" width="50" height="48">
<path d="M15.4721 0C6.92711 0 0 6.92711 0 15.4721V32.5279C0 41.0729 6.92711 48 15.4721 48H33.9898C42.5348 48 49.4619 41.0729 49.4619 32.5279V15.4721C49.4619 6.92711 42.5348 0 33.9898 0H15.4721Z" fill="white"/>
</mask>
<g mask="url(#mask27_4087_12591)">
<path d="M45.7665 13.6495C45.7665 19.4055 41.1005 24.0715 35.3445 24.0715C29.5886 24.0715 24.9226 19.4055 24.9226 13.6495C24.9226 7.89361 29.5886 3.22843 35.3445 3.22843C41.1005 3.22843 45.7665 7.89442 45.7665 13.6495Z" fill="#FEFDF4"/>
</g>
<mask id="mask28_4087_12591" style="mask-type:luminance" maskUnits="userSpaceOnUse" x="0" y="0" width="50" height="48">
<path d="M15.4721 0C6.92711 0 0 6.92711 0 15.4721V32.5279C0 41.0729 6.92711 48 15.4721 48H33.9898C42.5348 48 49.4619 41.0729 49.4619 32.5279V15.4721C49.4619 6.92711 42.5348 0 33.9898 0H15.4721Z" fill="white"/>
</mask>
<g mask="url(#mask28_4087_12591)">
<path d="M35.3445 4.52792C37.7811 4.52792 40.0714 5.47655 41.7949 7.2C43.5175 8.92264 44.467 11.2138 44.467 13.6504C44.467 16.0869 43.5183 18.3781 41.7949 20.1007C40.0723 21.8234 37.7811 22.7728 35.3445 22.7728C32.908 22.7728 30.6168 21.8242 28.8942 20.1007C27.1715 18.3781 26.2221 16.0869 26.2221 13.6504C26.2221 11.2138 27.1707 8.92345 28.8942 7.2C30.6176 5.47655 32.908 4.52792 35.3445 4.52792ZM35.3445 3.22843C29.5886 3.22843 24.9226 7.89442 24.9226 13.6504C24.9226 19.4063 29.5886 24.0723 35.3445 24.0723C41.1005 24.0723 45.7665 19.4055 45.7665 13.6495C45.7665 7.89442 41.1005 3.22843 35.3445 3.22843Z" fill="#112033"/>
</g>
<mask id="mask29_4087_12591" style="mask-type:luminance" maskUnits="userSpaceOnUse" x="0" y="0" width="50" height="48">
<path d="M15.4721 0C6.92711 0 0 6.92711 0 15.4721V32.5279C0 41.0729 6.92711 48 15.4721 48H33.9898C42.5348 48 49.4619 41.0729 49.4619 32.5279V15.4721C49.4619 6.92711 42.5348 0 33.9898 0H15.4721Z" fill="white"/>
</mask>
<g mask="url(#mask29_4087_12591)">
<path d="M35.2415 14.1994C35.2415 15.5151 34.1743 16.5823 32.8585 16.5823C31.5428 16.5823 30.4756 15.5151 30.4756 14.1994C30.4756 12.8837 31.542 11.8164 32.8585 11.8164C34.1743 11.8173 35.2415 12.8837 35.2415 14.1994Z" fill="#0A668E"/>
</g>
<mask id="mask30_4087_12591" style="mask-type:luminance" maskUnits="userSpaceOnUse" x="0" y="0" width="50" height="48">
<path d="M15.4721 0C6.92711 0 0 6.92711 0 15.4721V32.5279C0 41.0729 6.92711 48 15.4721 48H33.9898C42.5348 48 49.4619 41.0729 49.4619 32.5279V15.4721C49.4619 6.92711 42.5348 0 33.9898 0H15.4721Z" fill="white"/>
</mask>
<g mask="url(#mask30_4087_12591)">
<path d="M35.3446 7.35919C38.8126 7.35919 41.635 10.1807 41.635 13.6495C41.635 17.1184 38.8134 19.9399 35.3446 19.9399C31.8758 19.9399 29.0543 17.1184 29.0543 13.6495C29.0543 10.1815 31.8766 7.35919 35.3446 7.35919ZM35.3446 6.0597C31.1529 6.0597 27.7548 9.45787 27.7548 13.6495C27.7548 17.8412 31.1529 21.2394 35.3446 21.2394C39.5363 21.2394 42.9345 17.8412 42.9345 13.6495C42.9345 9.45787 39.5363 6.0597 35.3446 6.0597Z" fill="#112033"/>
</g>
<mask id="mask31_4087_12591" style="mask-type:luminance" maskUnits="userSpaceOnUse" x="0" y="0" width="50" height="48">
<path d="M15.4721 0C6.92711 0 0 6.92711 0 15.4721V32.5279C0 41.0729 6.92711 48 15.4721 48H33.9898C42.5348 48 49.4619 41.0729 49.4619 32.5279V15.4721C49.4619 6.92711 42.5348 0 33.9898 0H15.4721Z" fill="white"/>
</mask>
<g mask="url(#mask31_4087_12591)">
<path d="M40.3971 12.1665C40.3971 12.7342 39.9366 13.1947 39.3689 13.1947C38.8012 13.1947 38.3407 12.7342 38.3407 12.1665C38.3407 11.5988 38.8012 11.1383 39.3689 11.1383C39.9366 11.1375 40.3971 11.598 40.3971 12.1665Z" fill="#FEFDF4"/>
</g>
<mask id="mask32_4087_12591" style="mask-type:luminance" maskUnits="userSpaceOnUse" x="0" y="0" width="50" height="48">
<path d="M15.4721 0C6.92711 0 0 6.92711 0 15.4721V32.5279C0 41.0729 6.92711 48 15.4721 48H33.9898C42.5348 48 49.4619 41.0729 49.4619 32.5279V15.4721C49.4619 6.92711 42.5348 0 33.9898 0H15.4721Z" fill="white"/>
</mask>
<g mask="url(#mask32_4087_12591)">
<path d="M33.5058 9.77137C33.5058 10.2887 33.1631 10.6461 32.6465 10.6461C32.1292 10.6461 31.7101 10.227 31.7101 9.70964C31.7101 9.19228 32.1292 8.7732 32.6465 8.7732C32.8739 8.7732 33.0827 8.92995 33.2451 9.06477C33.4522 9.23777 33.5058 9.48223 33.5058 9.77137Z" fill="#FEFDF4"/>
</g>
<mask id="mask33_4087_12591" style="mask-type:luminance" maskUnits="userSpaceOnUse" x="0" y="0" width="50" height="48">
<path d="M15.4721 0C6.92711 0 0 6.92711 0 15.4721V32.5279C0 41.0729 6.92711 48 15.4721 48H33.9898C42.5348 48 49.4619 41.0729 49.4619 32.5279V15.4721C49.4619 6.92711 42.5348 0 33.9898 0H15.4721Z" fill="white"/>
</mask>
<g mask="url(#mask33_4087_12591)">
<path d="M36.0236 10.6242C35.5314 10.6242 35.0384 10.5202 34.5884 10.3212C34.2213 10.1588 34.0548 9.72914 34.2173 9.36203C34.3797 8.99492 34.8094 8.82843 35.1765 8.99086C35.3754 9.07858 35.6963 9.18091 36.0894 9.16792C36.4857 9.15492 36.8 9.03066 36.9933 8.92833C37.3491 8.74152 37.7884 8.87797 37.9761 9.23289C38.1637 9.58863 38.0264 10.028 37.6715 10.2156C37.2004 10.4642 36.6693 10.6047 36.1373 10.6217C36.0991 10.6234 36.0617 10.6242 36.0236 10.6242Z" fill="#FEFDF4"/>
</g>
</g>
<defs>
<linearGradient id="paint0_linear_4087_12591" x1="33.8454" y1="49.0506" x2="15.6111" y2="-1.04752" gradientUnits="userSpaceOnUse">
<stop stop-color="#3A7CBF"/>
<stop offset="5.32779e-09" stop-color="#3A7CBF"/>
<stop offset="0.0774" stop-color="#3B83C4"/>
<stop offset="0.5078" stop-color="#46A6DE"/>
<stop offset="0.8279" stop-color="#51BCEC"/>
<stop offset="1" stop-color="#56C4F2"/>
</linearGradient>
<linearGradient id="paint1_linear_4087_12591" x1="33.8454" y1="49.0506" x2="15.6111" y2="-1.04752" gradientUnits="userSpaceOnUse">
<stop stop-color="#47A7DE"/>
<stop offset="5.32779e-09" stop-color="#47A7DE"/>
<stop offset="0.4159" stop-color="#5AB4E2"/>
<stop offset="1" stop-color="#7BCCE8"/>
</linearGradient>
<linearGradient id="paint2_linear_4087_12591" x1="24.4411" y1="48.7668" x2="24.4411" y2="26.2329" gradientUnits="userSpaceOnUse">
<stop stop-color="#D7E1D9"/>
<stop offset="0.1168" stop-color="#D7E1D9"/>
<stop offset="0.2213" stop-color="#DBE4DB"/>
<stop offset="0.3427" stop-color="#E7ECE3"/>
<stop offset="0.472" stop-color="#FAFAF0"/>
<stop offset="0.495" stop-color="#FEFDF2"/>
<stop offset="1" stop-color="#FEFDF2"/>
</linearGradient>
<linearGradient id="paint3_linear_4087_12591" x1="24.2276" y1="33.3386" x2="24.2276" y2="1.70878" gradientUnits="userSpaceOnUse">
<stop stop-color="#D7E1D9"/>
<stop offset="1.38523e-07" stop-color="#D7E1D9"/>
<stop offset="0.0671" stop-color="#E2E8DF"/>
<stop offset="0.2064" stop-color="#F2F4EA"/>
<stop offset="0.3481" stop-color="#FBFBF0"/>
<stop offset="0.495" stop-color="#FEFDF2"/>
<stop offset="1" stop-color="#FEFDF2"/>
</linearGradient>
<clipPath id="clip0_4087_12591">
<rect width="49.4619" height="48" fill="white"/>
</clipPath>
</defs>
</svg>
